<svg width="200" height="84" viewBox="0 0 200 84" fill="none" xmlns="http://www.w3.org/2000/svg">
<path d="M179.3 56.4999C178.4 57.1999 177.5 58.0999 176.5 58.4999C173.6 59.7999 170.7 61.0999 167.7 62.0999C164 63.3999 161.1 61.7999 158.9 58.7999C158.8 58.5999 158.6 58.3999 158.6 58.4999C155.3 59.6999 152.2 60.8999 149.1 61.7999C146.2 62.5999 143.3 62.2999 140.5 61.1999C139.7 60.8999 138.7 60.9999 137.8 60.9999C137.3 60.9999 134.1 61.9999 128.3 60.6999C126.4 60.4999 125.2 58.7999 124.4 56.9999C124.1 56.2999 123.8 55.6999 123.4 54.7999C122.5 55.8999 121.9 56.8999 121.1 57.6999C120.1 58.7999 118.9 59.8999 117.7 60.6999C116.8 61.2999 115.8 61.1999 115.3 60.0999C114.9 59.0999 114.2 59.2999 113.4 59.5999C111.4 60.3999 109.5 61.2999 107.4 61.8999C104.7 62.7999 102 62.4999 99.6 60.9999C98.8 60.4999 98.3 59.7999 97.6 59.2999C95.9 59.8999 94.1 60.3999 92.4 61.0999C90.2 61.9999 87.9 61.9999 85.7 61.2999C83.1 60.4999 80.6 61.1999 78.1 61.2999C75.3 61.2999 72.6 60.8999 69.8 60.8999C68.6 60.8999 67.3 61.1999 66.2 61.7999C64.2 62.7999 62.4 62.5999 60.5 61.6999C58.6 60.7999 57.2 59.2999 56.7 57.2999C56.3 55.4999 56.3 53.5999 56.3 51.7999C56.2 50.4999 56.9 49.6999 58.2 49.4999C58.8 49.3999 59.4 49.0999 60.3 48.7999C60.2 49.7999 60.2 50.5999 60.1 51.3999C59.6 53.8999 59.9 56.2999 61.2 58.4999C62.5 60.7999 65.6 61.3999 67.9 59.8999C68.6 59.4999 69.3 59.0999 70 58.7999C71.5 58.1999 73.6 54.7999 73.4 53.1999C73.3 51.7999 71.9 51.0999 70 51.5999C69.4 51.6999 68.8 51.7999 67.9 51.9999C68.2 51.4999 68.2 51.1999 68.4 50.9999C69.9 49.5999 73.1 49.1999 74.9 49.9999C76.3 50.6999 76.7 51.7999 76 53.0999C75.2 54.5999 74.3 56.0999 73.3 57.3999C72.4 58.5999 72.8 59.1999 74 59.4999C77.5 60.2999 81.1 60.7999 84.4 58.6999C86.3 57.5999 87.1 55.6999 87.5 53.6999C87.7 52.8999 87.3 51.8999 86 51.8999C84.8 51.8999 83.5 51.8999 82.2 51.8999C83 50.1999 85.7 49.2999 87.8 49.6999C90.5 50.2999 91 51.3999 89.7 53.7999C89 55.1999 88.1 56.4999 87.2 57.6999C86.6 58.5999 86.6 59.1999 87.6 59.4999C88.5 59.7999 89.6 60.0999 90.5 59.8999C92.6 59.4999 94.6 58.7999 96.6 58.1999C97 58.0999 97.4 57.6999 97.6 57.2999C98 56.3999 98.4 55.4999 98.7 54.4999C99.4 51.7999 101.3 50.3999 103.8 49.7999C104.7 49.5999 106 49.6999 106.5 50.1999C107.3 50.9999 107.1 52.3999 106.1 53.1999C105 54.1999 103.8 55.0999 102.5 55.7999C100.7 56.7999 100.6 57.4999 102.1 58.8999C104.1 60.7999 107.8 61.1999 110.7 59.6999C111 59.5999 111.2 59.3999 111.5 59.1999C114 58.0999 114 58.0999 113.5 55.3999C113.3 54.2999 113.2 53.1999 113 52.0999C112.8 50.6999 114.6 48.8999 115.9 49.3999C116.2 49.4999 116.5 50.1999 116.5 50.5999C116.7 52.1999 116.7 53.7999 116.9 55.2999C117 55.8999 117.5 56.4999 117.8 56.9999C118.2 56.6999 118.8 56.3999 119.1 55.8999C120 54.5999 120.8 53.1999 121.6 51.7999C122.4 50.4999 123.8 49.9999 125.4 49.4999C125.5 52.7999 126 55.7999 128.6 57.3999C131.2 59.0999 134.2 60.1999 137.3 59.8999C136.7 56.9999 136.1 54.2999 135.5 51.4999C135.5 51.3999 135.3 51.0999 135.4 51.0999C137 49.6999 136.3 47.6999 136.9 45.9999C137 45.7999 137.1 45.3999 137.3 45.2999C137.9 44.8999 138.6 44.1999 139 44.2999C139.9 44.4999 139.9 45.3999 139.6 46.2999C139.5 46.4999 139.5 46.7999 139.5 47.0999C139.4 49.2999 139.6 49.4999 141.8 49.1999C146.2 48.5999 150.5 47.4999 154.6 45.8999C155.2 45.6999 155.8 45.5999 156.4 45.3999C156.5 45.5999 156.5 45.6999 156.6 45.8999C154.8 46.5999 153 47.3999 151.2 47.9999C147.6 49.0999 144 49.9999 140.4 50.8999C139.4 51.0999 138.9 51.4999 139.1 52.4999C139.4 54.0999 139.4 55.7999 140.1 57.2999C140.6 58.2999 141.7 59.3999 142.8 59.7999C146.3 61.0999 149.9 61.1999 153.5 59.4999C156.3 58.1999 158.8 56.9999 157.7 53.0999C156.9 50.0999 159 49.1999 161.7 48.5999C161.6 49.4999 161.6 50.2999 161.4 51.0999C160.5 55.0999 161.8 58.5999 165.2 59.6999C167.1 60.2999 169.4 59.9999 171.4 59.4999C173.2 59.0999 174.8 57.7999 176.5 56.8999C177.2 56.4999 178 56.0999 178.7 55.6999C179.2 56.1999 179.2 56.2999 179.3 56.4999ZM101.6 54.3999C101.8 54.4999 102 54.5999 102.1 54.6999C102.8 54.0999 103.5 53.5999 104.1 52.8999C104.3 52.6999 104 52.0999 104 51.5999C103.6 51.6999 103 51.5999 102.9 51.8999C102.3 52.7999 102 53.5999 101.6 54.3999Z" fill="#302F40"/>
<path d="M46.9 30.0001C47 29.5001 46.9 29.0001 47.1 28.6001C49.8 23.7001 50.2 18.4001 49.7 13.1001C49.5 11.3001 48.5 9.50009 47.6 7.90009C47 6.70009 45.6 6.50009 44.5 7.20009C43.1 8.10009 41.7 9.20009 40.8 10.5001C37.1 15.7001 34.6 21.4001 32.8 27.5001C31.6 31.7001 30.4 35.9001 29.2 40.1001C28.9 41.3001 28.8 42.6001 28.6 43.9001C28.5 44.9001 28.9 45.3001 29.9 45.2001C32 45.0001 34.2 44.9001 36.3 44.8001C40.2 44.5001 44.2 44.3001 48.1 44.0001C48.8 44.0001 49.5 43.7001 50.2 43.7001C50.9 43.7001 51.7 43.8001 52.4 43.8001C52.4 44.0001 52.4 44.3001 52.5 44.5001C51.9 44.6001 51.2 44.9001 50.6 44.9001C43.7 45.6001 36.8 46.2001 29.9 46.9001C28.7 47.0001 28.1 47.6001 28.3 48.9001C29.2 56.2001 29.1 63.6001 28.8 70.9001C28.8 71.9001 28.7 73.3001 27.5 73.2001C26.8 73.2001 25.6 72.0001 25.5 71.3001C25.1 68.3001 24.7 65.2001 24.9 62.1001C25.1 57.9001 25.8 53.6001 26.2 49.4001C26.3 48.2001 26 47.5001 24.7 47.7001C24.3 47.8001 23.9 47.8001 23.6 47.6001C23.2 47.4001 22.9 46.9001 22.5 46.6001C22.9 46.3001 23.2 45.7001 23.6 45.6001C26.2 44.7001 26.3 44.8001 25.7 42.0001C25.3 39.9001 24.7 37.9001 24.1 35.5001C23.6 36.8001 23.3 37.6001 22.9 38.5001C21.4 37.0001 20.9 32.8001 21.9 31.4001C22.9 30.0001 24.3 29.9001 25 31.6001C25.9 33.6001 26.5 35.8001 27.1 37.9001C27.3 38.5001 27.4 39.1001 27.8 39.7001C28.2 38.0001 28.6 36.3001 29.1 34.7001C30.8 29.5001 32.4 24.2001 34.3 19.1001C35.9 14.9001 37.9 10.8001 41.1 7.50009C42.1 6.50009 43.3 5.60009 44.7 5.20009C46.5 4.60009 48.2 5.40009 49.4 6.80009C51.6 9.40009 52.1 12.4001 52 15.7001C51.9 20.2001 51.1 24.5001 49.2 28.6001C48.9 29.3001 48.2 29.8001 47.6 30.5001C47.3 30.3001 47.1 30.1001 46.9 30.0001Z" fill="#302F40"/>
<path d="M54.8 51.1999C50.8 52.5999 47 53.6999 43 53.8999C40.7 53.9999 40.6 54.1999 40.6 56.3999C40.6 58.0999 40.7 59.8999 39.3 61.1999C38.7 61.6999 37.9 61.9999 37.1 62.2999C36.8 61.6999 36.5 60.9999 36.4 60.3999C36 57.7999 35.6 55.1999 35.3 52.4999C35.3 52.0999 35.4 51.4999 35.6 51.2999C36.1 50.9999 37 50.5999 37.3 50.7999C38.1 51.3999 39 51.1999 39.8 51.4999C44.5 52.9999 49.1 51.7999 53.7 50.9999C53.9 50.9999 54 50.9999 54.2 50.9999C54.3 50.9999 54.4 50.9999 54.8 51.1999Z" fill="#302F40"/>
<path d="M162.5 41.7999C162.6 43.2999 161.9 43.9 160.6 43.9C159.4 43.9 158.5 43.2999 158.4 42.0999C158.2 41.0999 159.5 40.2 161 40.2C162.1 40.2 162.5 40.5999 162.5 41.7999Z" fill="#302F40"/>
<path d="M59.5 40.0999C60.9 39.8999 61.2 40.6999 61.2 41.6999C61.3 42.7999 60.4 43.7999 59.3 43.7999C58.1 43.6999 57.2 43.1999 57 41.9999C56.9 40.8999 58 40.1999 59.5 40.0999Z" fill="#302F40"/>
</svg>
