<svg width="200" height="84" viewBox="0 0 200 84" fill="none" xmlns="http://www.w3.org/2000/svg">
<path d="M48 17.5C48.8 17.7 49.6 18 50.3 18.2C53.1 19.1 54.2 22.1 52.7 24.7C51.6 26.6 49.9 28.1 48.4 29.7C47.1 31 45.5 32.2 44.9 34C44.3 35.7 43.7 37.5 43.5 39.3C43.2 41.6 43.4 43.9 43.2 46.2C43.1 48.7 42.5 51.1 40.4 52.7C39.4 53.5 38.2 54 36.8 54.2C33 54.7 30.6 52.5 28.5 49.9C24.5 44.9 22.4 39 20.7 32.9C20.4 31.8 20.3 30.6 20.1 29.4C20.1 29.3 20 29.2 19.9 29.1C19.9 27.6 19.9 26.1 19.9 24.6C20 24.3 20.2 24 20.3 23.8C20.9 21.8 22.6 20.7 24.6 20.7C26.1 20.7 27.3 21.3 28.6 21.9C30.2 22.7 31.7 22.7 33.3 21.9C35.5 20.8 37.7 19.7 40 18.8C41.1 18.3 42.4 18 43.6 17.7C45.1 17.5 46.5 17.5 48 17.5Z" fill="#302F3F"/>
<path d="M139.2 35.7999C139.1 39.7999 138.5 43.5999 136.8 47.0999C136.2 48.3999 135.4 49.6 134.2 50.4C132.1 51.8 129.3 51.2999 128.2 48.7999C127.5 47.4 127 45.9999 126.3 44.5999C125.6 43.2999 124.6 42.1 122.9 42.5C122 42.7 121.1 43.2999 120.3 43.7999C119.5 44.4 118.9 45.1999 118.1 45.7999C116.3 47.1999 114.8 47.1999 112.6 45.7999C111.8 45.2999 110.9 44.8 110 44.4C109 43.9 108 44.1999 107.3 45.0999C106.2 46.3999 105.3 47.7999 104.3 49.0999C103.2 50.3999 101.9 51.1999 100.2 51.2999C95.9 51.6999 93.8 48.8999 92.9 45.5999C92.2 42.9999 92.2 40.4 92.5 37.7999C92.8 34.4999 93.1 31.1999 94.3 28.0999C95.4 25.2999 96.7 22.7999 99.5 21.2999C102.8 19.4999 106.8 19.7999 109.9 22.4999C111.6 23.9999 113.5 25.2 115.8 25.1C117.7 25 119.2 24.0999 120.8 23.1C122.3 22.2 123.7 21.2 125.3 20.6C128.2 19.5 131.1 19.8 133.7 21.7C136.5 23.8 137.8 26.7999 138.5 29.9999C138.9 31.6999 139 33.7999 139.2 35.7999Z" fill="#302F3F"/>
<path d="M180 33.6001C180.1 38.5001 178.8 43.0001 176.9 47.4001C175.8 50.2001 174.3 52.7001 172.5 55.1001C170.1 58.3001 167.2 61.0001 163.7 63.1001C161.3 64.6001 158.7 65.7001 155.9 66.0001C152.9 66.4001 149.9 66.6001 146.9 65.6001C143.3 64.4001 142.7 59.9001 145.1 57.3001C146.6 55.7001 148.6 54.8001 150.4 53.6001C152.1 52.5001 153.6 51.2001 153.9 49.1001C154.1 48.0001 153.9 46.9001 153.7 45.9001C153 43.0001 151.3 40.5001 149.9 37.8001C148.7 35.5001 147.7 33.1001 147.3 30.6001C146.9 28.4001 147.1 26.4001 148.6 24.6001C150.8 22.0001 153.7 21.4001 156.4 23.3001C157.8 24.3001 159 25.5001 160.3 26.6001C162.5 28.7001 165 29.1001 167.8 27.7001C169.5 26.9001 171.1 26.0001 172.9 25.7001C174.8 25.4001 176.7 25.4001 178.2 26.8001C179.5 28.0001 179.9 29.6001 180 31.2001C180.1 32.1001 180 32.9001 180 33.6001Z" fill="#302F3F"/>
<path d="M71.6 57.9001C67.2 57.9001 63.3 56.6001 60 53.8001C56.9 51.2001 55 47.8001 54.4 43.8001C53.9 40.3001 54.2 36.9001 55.8 33.7001C57.4 30.4001 59.8 27.7001 62.9 25.8001C65.3 24.4001 67.8 23.5001 70.6 23.3001C74.8 22.9001 78.6 23.8001 81.7 26.7001C84.4 29.2001 85.5 33.3001 82.9 37.1001C82.1 38.3001 81.1 39.5001 80.4 40.8001C79.6 42.0001 79 43.3001 79.3 44.8001C79.5 45.6001 80 46.3001 80.5 46.9001C81.2 47.8001 82.3 48.5001 82.9 49.4001C84.4 51.7001 83.9 53.7001 81.6 55.3001C79.5 56.7001 77.1 57.4001 74.6 57.7001C73.6 57.8001 72.6 57.8001 71.6 57.9001Z" fill="#302F3F"/>
</svg>
