<svg width="200" height="84" viewBox="0 0 200 84" fill="none" xmlns="http://www.w3.org/2000/svg">
<path d="M68.3 58.2999V25.3999H88.6V30.9999H74.1V39.0999H81.5V44.6999H74.1V58.1999H68.3V58.2999Z" fill="#302F3F"/>
<path fill-rule="evenodd" clip-rule="evenodd" d="M80.4001 43.0998C79.9001 44.4998 79.6001 45.8998 79.6001 47.3998C79.6001 49.3998 80.1001 51.2998 81.1001 52.9998C82.1001 54.6998 83.4001 55.9998 85.1001 56.8998C86.8001 57.8998 88.7001 58.2998 90.8001 58.2998C92.6001 58.2998 94.3001 57.8998 95.9001 57.0998C97.5001 56.2998 98.7001 55.2998 99.7001 53.8998L96.0001 50.9998C95.4001 51.7998 94.7001 52.3998 93.7001 52.7998C92.8001 53.1998 91.8001 53.3998 90.8001 53.3998C89.3001 53.3998 88.0001 52.9998 87.0001 52.1998C86.0001 51.3998 85.3001 50.2998 85.0001 48.9998H101C101.1 48.4998 101.1 47.8998 101.1 47.2998C101.1 45.2998 100.7 43.4998 99.8001 41.7998C98.9001 40.0998 97.6001 38.7998 96.0001 37.7998C94.4001 36.7998 92.5001 36.2998 90.5001 36.2998C88.9001 36.2998 87.4001 36.5998 86.0001 37.1998C84.6001 37.7998 83.5001 38.5998 82.6001 39.5998C81.6001 40.4998 80.9001 41.6998 80.4001 43.0998ZM95.6001 44.8998H85.1001C85.5001 43.7998 86.2001 42.7998 87.1001 42.1998C88.1001 41.4998 89.2001 41.1998 90.4001 41.1998C91.7001 41.1998 92.9001 41.5998 93.8001 42.2998C94.9001 42.9998 95.4001 43.8998 95.6001 44.8998Z" fill="#302F3F"/>
<path fill-rule="evenodd" clip-rule="evenodd" d="M98.3 43.0999C97.8 44.4999 97.5 45.9 97.5 47.4C97.5 49.4 98 51.3 99 53C100 54.7 101.3 56 103 56.9C104.7 57.9 106.6 58.2999 108.7 58.2999C110.5 58.2999 112.2 57.8999 113.8 57.0999C115.4 56.2999 116.6 55.3 117.6 53.9L113.9 50.9C113.3 51.7 112.6 52.3 111.6 52.7C110.7 53.1 109.7 53.2999 108.7 53.2999C107.2 53.2999 105.9 52.8999 104.9 52.0999C103.9 51.2999 103.2 50.2 102.9 48.9H118.9C119 48.4 119 47.8 119 47.2C119 45.2 118.6 43.4 117.7 41.7C116.8 40 115.5 38.7 113.9 37.7C112.3 36.7 110.4 36.2 108.4 36.2C106.8 36.2 105.3 36.4999 103.9 37.0999C102.5 37.6999 101.4 38.5 100.5 39.5C99.5 40.5 98.8 41.6999 98.3 43.0999ZM113.5 44.9H103C103.4 43.8 104.1 42.8 105 42.2C106 41.5 107.1 41.2 108.3 41.2C109.6 41.2 110.8 41.5999 111.7 42.2999C112.8 42.9999 113.3 43.9 113.5 44.9Z" fill="#302F3F"/>
<path d="M117.2 50.2999C117.2 52.8999 117.8 54.7999 119.2 56.1999C120.5 57.5999 122.4 58.2999 124.8 58.2999C125.7 58.2999 126.7 58.1999 128 57.8999V52.8999C127.6 52.9999 127.1 52.9999 126.6 52.9999C125.2 52.9999 124.3 52.6999 123.8 51.9999C123.3 51.2999 123.1 50.1999 123.1 48.5999V25.5999H117.4V50.2999H117.2Z" fill="#302F3F"/>
</svg>
