<svg width="200" height="84" viewBox="0 0 200 84" fill="none" xmlns="http://www.w3.org/2000/svg">
<path d="M98.6001 64.8999C98.3001 64.7999 98.1001 64.5999 97.8001 64.4999C96.0001 63.8999 95.1001 62.2999 95.6001 60.2999C95.9001 58.7999 97.6001 57.6999 99.3001 57.8999C99.5001 57.8999 99.8001 58.1999 99.9001 58.4999C100.3 59.3999 100.7 60.2999 101.1 61.1999C101.5 61.9999 102 62.1999 102.6 61.4999C103.4 60.5999 103.9 59.4999 104.5 58.3999C105 57.3999 105.4 56.2999 105.9 55.2999C106.3 54.5999 106.1 53.8999 105.8 53.1999C104.2 49.2999 102.6 45.2999 101 41.3999C99.8001 38.5999 99.0001 35.4999 96.9001 32.8999C100.1 32.8999 103.1 32.8999 106.3 32.8999C105.7 33.5999 105.1 34.1999 104.6 34.8999C104.4 35.1999 104.3 35.5999 104.4 35.8999C105.9 39.5999 107.3 43.1999 108.8 46.8999C108.8 46.9999 108.9 46.9999 109 47.1999C109.7 45.4999 110.4 43.8999 111 42.2999C111.5 41.0999 112 39.7999 112.5 38.4999C112.8 37.6999 112.8 36.9999 112.3 36.2999C111.6 35.1999 111 34.0999 110.2 32.8999C112.5 32.8999 114.6 32.8999 116.9 32.8999C116.2 33.9999 115.5 34.8999 114.9 35.8999C114.1 37.2999 113.4 38.5999 112.8 40.0999C110.9 44.7999 109 49.4999 107.1 54.1999C106 56.7999 104.9 59.2999 103.6 61.7999C102.9 63.1999 101.6 64.0999 100.1 64.3999C99.8001 64.4999 99.6001 64.6999 99.4001 64.7999C99.1001 64.8999 98.8001 64.8999 98.6001 64.8999Z" fill="#302E3F"/>
<path d="M20.1 26.9C22.6 26.9 25 26.9 27.3 26.9C29.8 27 29.8 26.9999 30.8 29.4C32.9 34.4 35.1 39.3 37.3 44.4C37.7 43.6 38 42.9 38.3 42.2C39.8 38.3 41.4 34.4 42.9 30.5C43.2 29.8 43.5 29.2 43.7 28.5C44.4 26.7 44.4 26.7 46.3 26.7C48.3 26.7 50.4 26.7 52.7 26.7C51.6 27.5 50.6 28.1999 49.8 28.9C49.5 29.1999 49.2 29.7 49.2 30.1C49.2 36.5 49.2 43 49.2 49.4C49.2 49.8 49.5 50.2999 49.8 50.5C50.7 51.2 51.7 51.9 52.8 52.7C48.5 52.7 44.4 52.7 40.1 52.7C41.2 51.9 42.2 51.2 43.1 50.5C43.4 50.2999 43.6 49.7999 43.6 49.5C43.6 43.7 43.6 37.8999 43.6 32.0999C43.6 31.9999 43.6 31.9999 43.4 31.7999C40.7 38.9999 38 46 35.1 53.2C31.6 45.6 28.7 38.0999 25.2 30.7999C25.1 30.7999 25 30.8 24.9 30.9C24.9 31.2 24.9 31.4999 24.9 31.9C24.9 36.5999 25 41.3 24.8 45.9C24.7 47.9 25.5 49.2 26.9 50.4C27.8 51.1 28.5 52 29.4 53C26 53 22.8 53 19.4 53C20.3 52.1 21 51.3999 21.7 50.5999C22.3 49.9999 22.9 49.6 23.4 49C23.7 48.6 23.9 47.9999 23.9 47.5999C23.9 42.1999 23.9 36.6999 23.9 31.2999C23.9 30.7999 23.6 30.1999 23.2 29.9C22.2 28.8 21.2 27.9 20.1 26.9Z" fill="#302E3F"/>
<path d="M149.5 53C145.9 53 142.5 53 138.8 53C139.6 52.4 140.3 52 140.8 51.4C141.1 51.1 141.5 50.6 141.5 50.2C141.5 45.5 141.5 40.8 141.5 36.1C141.5 34.9 140.3 34.7 139.8 34C139.5 33.7 139.1 33.5 138.6 33C141.4 33 143.9 33 146.6 33C146.6 34.3 146.6 35.6 146.6 36.9C147.4 35.9 148.1 34.7 149.1 33.8C151.2 32 155.8 31.9 157.6 35C158.7 36.8 158.9 38.8 158.9 40.8C158.9 43.8 158.9 46.8 158.8 49.7C158.8 50.5 159 51.1 159.8 51.6C160.4 51.9 160.9 52.4 161.6 52.9C158 52.9 154.6 52.9 151 52.9C151.5 52.5 151.8 52.1 152.3 51.8C153.3 51.2 153.7 50.4 153.7 49.3C153.7 46.9 153.8 44.5 153.8 42.1C153.8 40.7 153.6 39.4 153.4 38C153.2 36.8 152.6 35.8 151.3 35.4C150 35 148.8 35.5 147.8 36.4C147 37.2 146.5 38 146.6 39.3C146.7 42.8 146.7 46.2 146.6 49.7C146.6 50.5 146.8 51.1 147.6 51.5C148.2 51.9 148.7 52.4 149.5 53Z" fill="#302E3F"/>
<path d="M97.4 53C93.8 53 90.4 53 86.7 53C87.5 52.4 88.2 51.9 88.9 51.3C89.2 51.1 89.5 50.7 89.5 50.4C89.5 46.6 89.5 42.8 89.4 39C89.4 38.2 89 37.4 88.6 36.7C88 35.5 86.1 35 84.9 35.7C83.4 36.5 82.3 37.6 82.4 39.6C82.5 43 82.5 46.4 82.4 49.9C82.4 50.6 82.6 51.1 83.2 51.5C83.8 51.9 84.4 52.4 85.2 52.9C81.6 52.9 78.2 52.9 74.6 52.9C75.3 52.4 75.8 51.9 76.5 51.6C77.1 51.2 77.4 50.8 77.4 50.1C77.4 45.5 77.4 40.9 77.4 36.3C77.4 35.8 77.1 35.3 76.8 35C76.2 34.4 75.4 33.8 74.6 33.1C77.4 33.1 79.9 33.1 82.5 33.1C82.5 34.5 82.5 35.8 82.5 37.4C83.2 36.4 83.6 35.4 84.3 34.6C86 32.7 88.2 32.4 90.5 33C92.7 33.5 93.8 35.1 94.3 37.1C94.6 38.5 94.7 39.9 94.8 41.3C94.8 44.2 94.8 47.1 94.7 50.1C94.7 50.8 94.9 51.3 95.6 51.7C96.1 51.9 96.6 52.4 97.4 53Z" fill="#302E3F"/>
<path d="M137 42.7999C136.9 44.9999 136.7 46.9999 135.7 48.7999C134.5 50.9999 132.7 52.3999 130.4 52.8999C127.3 53.5999 124.3 53.5999 121.5 51.7999C119.3 50.3999 118.1 48.3999 117.6 45.9999C117.2 43.9999 117.2 41.8999 117.6 39.8999C118.4 35.7999 121.6 32.9999 125.8 32.6999C127.6 32.5999 129.4 32.5999 131.2 33.2999C134.6 34.4999 136.3 37.0999 136.9 40.4999C136.9 41.2999 136.9 42.0999 137 42.7999ZM131.4 42.9999C131.3 42.9999 131.2 42.9999 131.1 42.9999C131.2 40.5999 131 38.1999 130.2 35.8999C129.6 34.1999 128.5 33.2999 126.9 33.2999C125.4 33.2999 124.3 34.1999 123.7 35.8999C122.7 39.1999 122.6 42.4999 122.9 45.8999C123 47.4999 123.4 49.0999 123.9 50.6999C124.5 52.5999 126.3 53.2999 128.1 52.5999C129.3 52.0999 130 51.0999 130.2 49.8999C130.8 47.4999 131.1 45.2999 131.4 42.9999Z" fill="#302E3F"/>
<path d="M65.5 42.4999C65.5 40.5999 65.6 38.8999 65.5 37.1999C65.3 34.6999 63.9 33.2999 61.6 33.2999C60.9 33.2999 60.6 33.4999 60.3 34.0999C59.9 34.9999 59.5 35.7999 59 36.6999C58.6 37.5999 58.1 38.3999 57.6 39.4999C56.8 37.5999 56.1 35.7999 55.3 33.7999C57.2 33.3999 58.9 32.7999 60.7 32.5999C62.8 32.3999 64.9 32.2999 66.9 33.0999C69.2 33.9999 70.1 35.9999 70.3 38.0999C70.5 41.0999 70.3 44.0999 70.3 47.0999C70.3 47.6999 70.3 48.2999 70.3 48.8999C70.4 50.1999 70.9 50.5999 72.3 50.4999C72.4 50.4999 72.6 50.4999 72.8 50.4999C72.4 52.0999 71 53.0999 69.2 53.0999C67.1 53.0999 66 52.0999 65.4 49.4999C64.8 50.1999 64.2 51.0999 63.5 51.7999C61.7 53.3999 58.4 53.5999 56.5 52.1999C54.5 50.6999 53.8 47.7999 54.7 45.3999C56.2 41.3999 61.2 40.2999 64.6 41.8999C64.8 42.1999 65.1 42.2999 65.5 42.4999ZM65.4 45.8999C65.5 45.0999 65.5 44.2999 65.5 43.4999C65.5 43.2999 65.3 42.8999 65.1 42.7999C63.5 42.0999 61.4 42.5999 60.4 43.9999C59.5 45.2999 59.2 46.6999 59.5 48.1999C59.7 49.1999 60.2 50.0999 61.3 50.4999C63.2 51.1999 65.4 49.6999 65.5 47.6999C65.4 47.0999 65.4 46.4999 65.4 45.8999Z" fill="#302E3F"/>
<path d="M168.3 42.2C168.3 45.2 168.7 47.9 171.3 49.5C174.2 51.3 177 50.3 179.8 48.5C178.9 50.7 177.5 52.1 175.5 52.8C172.2 53.8 169.1 53.5 166.3 51.3C164.8 50.1 163.8 48.5 163.4 46.6C162.8 43.5 162.7 40.4 164.2 37.5C165.5 34.8 167.7 33.3 170.6 32.8C173 32.4 175.3 32.7 177.4 34C180.1 35.6 181 39.1 180.5 41.8C180.5 42 180 42.2 179.7 42.2C176.3 42.2 172.8 42.2 169.4 42.2C169.1 42.2 168.8 42.2 168.3 42.2ZM168.3 41.2C170.7 41.2 173 41.2 175.3 41.2C175.5 41.2 175.7 40.9 175.8 40.8C175.9 38.9 175.9 37 175.1 35.2C174.6 34.1 173.8 33.4 172.6 33.4C171.4 33.3 170.3 33.8 169.7 34.9C168.5 36.7 168.3 38.9 168.3 41.2Z" fill="#302E3F"/>
</svg>
