<svg width="200" height="84" viewBox="0 0 200 84" fill="none" xmlns="http://www.w3.org/2000/svg">
<path d="M25.6552 42.1159V42.0001C25.627 39.1585 26.1714 36.3403 27.2559 33.7137C28.3404 31.087 29.9428 28.7057 31.9675 26.7116C33.9921 24.7176 36.3976 23.1518 39.0405 22.1074C41.6834 21.0631 44.5095 20.5617 47.3503 20.6332C60.0372 20.6332 68.891 30.2883 68.891 41.8745V41.9904C68.9203 44.8295 68.378 47.6454 67.2965 50.2705C66.2149 52.8957 64.6163 55.2764 62.5956 57.2709C60.575 59.2654 58.1737 60.833 55.5347 61.8803C52.8957 62.9276 50.0729 63.4332 47.2345 63.3669C34.5379 63.3669 25.6552 53.7407 25.6552 42.1159ZM61.2441 42.1159V42.0001C61.2441 33.9766 55.3931 27.3049 47.1958 27.3049C38.9986 27.3049 33.2634 33.8511 33.2634 41.8842V42.0001C33.2634 50.0235 39.0565 56.6373 47.3117 56.6373C55.5669 56.6373 61.2827 50.149 61.2827 42.1159H61.2441Z" fill="#302E3F"/>
<path d="M77.6869 21.3477H84.9476V56.0483H106.672V62.6525H77.7062L77.6869 21.3477Z" fill="#302E3F"/>
<path d="M114.637 21.3477H121.898V62.6525H114.637V21.3477Z" fill="#302E3F"/>
<path d="M131.109 42.1159V42.0001C131.081 39.1618 131.624 36.347 132.706 33.7229C133.788 31.0989 135.387 28.7193 137.408 26.7259C139.428 24.7324 141.829 23.1657 144.468 22.119C147.106 21.0723 149.928 20.567 152.765 20.6332C165.462 20.6332 174.306 30.2884 174.306 41.8746V41.9904C174.334 44.8287 173.791 47.6436 172.709 50.2676C171.627 52.8916 170.028 55.2712 168.007 57.2647C165.987 59.2582 163.586 60.8248 160.948 61.8715C158.309 62.9182 155.487 63.4235 152.65 63.3573C139.963 63.367 131.109 53.7408 131.109 42.1159ZM166.698 42.1159V42.0001C166.698 33.9766 160.857 27.3049 152.65 27.3049C144.443 27.3049 138.717 33.8511 138.717 41.8842V42.0001C138.717 50.0235 144.568 56.6373 152.765 56.6373C160.963 56.6373 166.698 50.1491 166.698 42.1159Z" fill="#302E3F"/>
</svg>
