<svg width="200" height="84" viewBox="0 0 200 84" fill="none" xmlns="http://www.w3.org/2000/svg">
<path fill-rule="evenodd" clip-rule="evenodd" d="M21.7255 36.3421L38.7186 27.5366L55.9048 36.3421L38.7186 45.1766L21.7255 36.3421ZM123.761 40.6194V40.407C123.761 37.5104 125.47 36.5449 128.348 36.7863V31.4856C121.454 31.0704 118.19 34.5077 118.19 40.407V40.6194H115.072V45.9201H118.19V61.967H123.761V45.9201H130.172V61.967H135.724V45.9201H140.301V40.6194H135.724V40.407C135.724 37.5104 137.394 36.5449 140.301 36.7863V31.4856C133.417 31.0704 130.143 34.5077 130.143 40.407V40.6194H123.732H123.761ZM84.8028 46.4125C85.7124 45.7046 86.4438 44.7937 86.9384 43.7525C87.433 42.7114 87.677 41.569 87.651 40.4166C87.651 35.4152 83.5766 32.007 78.4497 32.007H66.5545V61.938H79.4055C84.6579 61.938 88.8483 58.4042 88.8483 53.2483C88.8527 51.8526 88.4789 50.4818 87.7666 49.2816C87.0543 48.0813 86.03 47.0965 84.8028 46.4318V46.4125ZM78.4786 37.549C78.9121 37.5352 79.3437 37.6113 79.7463 37.7726C80.1488 37.9339 80.5136 38.1769 80.8175 38.4863C81.1214 38.7957 81.3579 39.1647 81.5121 39.57C81.6662 39.9754 81.7347 40.4083 81.7131 40.8414C81.7289 41.2732 81.6566 41.7036 81.5004 42.1064C81.3442 42.5092 81.1075 42.8758 80.8047 43.184C80.5019 43.4922 80.1395 43.7354 79.7396 43.8987C79.3396 44.062 78.9106 44.142 78.4786 44.1339H72.5117V37.5683L78.4786 37.549ZM79.3766 56.4056H72.5117V49.3959H79.3766C80.3087 49.3959 81.2026 49.7662 81.8617 50.4253C82.5208 51.0844 82.891 51.9783 82.891 52.9104C82.891 53.8425 82.5208 54.7364 81.8617 55.3955C81.2026 56.0546 80.3087 56.4249 79.3766 56.4249V56.4056ZM106.228 40.5518V52.138C106.228 55.8456 104.19 57.4387 101.468 57.4387C98.9476 57.4387 97.1807 55.9421 97.1807 53.0359V40.5518H91.6097V53.7021C91.6097 59.389 95.1724 62.5366 99.7876 62.5366C102.684 62.5366 104.943 61.4552 106.199 59.5435V61.938H111.77V40.5518H106.228ZM163.444 53.4897H147.137C147.948 56.2994 150.284 57.4966 153.19 57.4966C154.104 57.5333 155.013 57.361 155.85 56.9929C156.686 56.6248 157.428 56.0706 158.018 55.3725L162.537 57.9311C161.478 59.4301 160.059 60.6379 158.41 61.4429C156.761 62.2479 154.936 62.6241 153.103 62.5366C145.852 62.5366 141.266 57.6221 141.266 51.2497C141.22 49.7442 141.484 48.2453 142.043 46.8466C142.602 45.4479 143.443 44.1793 144.514 43.1202C145.585 42.061 146.862 41.234 148.267 40.6908C149.672 40.1476 151.174 39.8997 152.679 39.9628C159.061 39.9628 163.618 44.9642 163.618 51.2497C163.623 52.0128 163.565 52.7749 163.444 53.5283V53.4897ZM152.708 44.9256C151.4 44.828 150.102 45.2134 149.059 46.0088C148.016 46.8042 147.301 47.9543 147.05 49.2414H158.076C157.849 48.0004 157.18 46.8835 156.193 46.0973C155.206 45.3111 153.968 44.9086 152.708 44.9642V44.9256ZM171.709 44.2304V40.5518H166.138V61.938H171.709V51.7325C171.709 47.2332 175.368 45.9394 178.275 46.3063V40.1656C175.552 40.1656 172.819 41.3725 171.709 44.269V44.2304ZM38.7186 60.2773L27.1324 53.9918L21.7352 56.8883L38.7283 66.0897L55.9048 56.9656L50.44 54.069L38.7186 60.2773ZM27.1324 44.0759L38.7186 49.7725L50.44 44.0759L55.9048 46.7311L38.7186 55.0925L21.7255 46.7311L27.1324 44.0759Z" fill="#302E3F"/>
</svg>
