<svg width="200" height="84" viewBox="0 0 200 84" fill="none" xmlns="http://www.w3.org/2000/svg">
<path d="M57.1214 34.3532C59.5029 36.9018 60.7951 40.2796 60.7228 43.767C60.7976 47.2576 59.5052 50.6393 57.1214 53.1904C55.9652 54.4224 54.5613 55.3957 53.0021 56.0464C51.4428 56.697 49.7635 57.0103 48.0745 56.9656C46.4199 56.9936 44.7826 56.6252 43.2994 55.8912C41.8162 55.1571 40.5303 54.0788 39.549 52.7463V56.3573H34.4414V20.8552H39.5973V34.7587C40.5761 33.4202 41.8604 32.3347 43.3432 31.5924C44.826 30.8501 46.4646 30.4726 48.1228 30.4911C49.8123 30.4492 51.4909 30.7726 53.044 31.4392C54.597 32.1057 55.9878 33.0997 57.1214 34.3532ZM53.1821 49.7242C54.6818 48.0933 55.4885 45.9432 55.4318 43.7283C55.491 41.5102 54.6841 39.3561 53.1821 37.7228C52.4577 36.9125 51.562 36.2738 50.5599 35.8529C49.5579 35.4321 48.4747 35.2397 47.389 35.2897C46.2911 35.2569 45.199 35.4617 44.1875 35.8899C43.176 36.3182 42.2689 36.9599 41.5283 37.7711C40.1069 39.438 39.3261 41.557 39.3261 43.7476C39.3261 45.9383 40.1069 48.0573 41.5283 49.7242C42.2767 50.529 43.1909 51.1616 44.2078 51.5784C45.2247 51.9952 46.32 52.1861 47.418 52.138C48.4976 52.1881 49.5749 51.9975 50.5718 51.5801C51.5687 51.1626 52.4603 50.5287 53.1821 49.7242Z" fill="#302E3F"/>
<path d="M89.4952 45.7367H69.7696C70.5228 49.676 73.2841 52.3408 78.16 52.3408C81.2209 52.289 84.2003 51.3462 86.7338 49.6277L88.8869 53.4222C85.6979 55.6982 81.8847 56.9355 77.9669 56.9656C68.5048 56.9656 64.4496 50.3615 64.4496 43.7091C64.3869 41.9803 64.6698 40.2565 65.2815 38.6384C65.8933 37.0203 66.8217 35.5405 68.0124 34.2856C69.2201 33.0456 70.6736 32.0717 72.2798 31.4266C73.8861 30.7814 75.6094 30.4793 77.3393 30.5394C78.9772 30.4775 80.6106 30.7484 82.1407 31.3359C83.6708 31.9234 85.0658 32.8152 86.2414 33.9574C88.5296 36.2553 89.7076 39.3449 89.7076 43.2843C89.6988 44.1059 89.6278 44.9257 89.4952 45.7367ZM69.7696 41.5174H84.4841C84.3675 39.711 83.5566 38.0199 82.2212 36.7979C80.8859 35.5759 79.1296 34.9178 77.32 34.9615C73.429 34.9615 70.5228 37.5877 69.7696 41.5174Z" fill="#302E3F"/>
<path d="M114.483 31.1185H119.455V56.3764H114.483V52.9102C113.447 54.1977 112.131 55.2321 110.635 55.9348C109.14 56.6375 107.503 56.99 105.851 56.9654C104.156 57.0077 102.471 56.6847 100.912 56.0184C99.3525 55.352 97.9549 54.3578 96.8138 53.1033C94.4293 50.5159 93.1477 47.1007 93.2414 43.5833C93.1797 41.862 93.4632 40.1457 94.0751 38.5356C94.6869 36.9255 95.6148 35.4541 96.8041 34.2082C97.9687 32.9948 99.3745 32.0388 100.931 31.4019C102.488 30.765 104.16 30.4613 105.841 30.5102C107.502 30.485 109.146 30.8439 110.645 31.5591C112.144 32.2743 113.458 33.3263 114.483 34.633V31.1185ZM112.426 49.7723C113.958 48.1394 114.781 45.9662 114.714 43.7282C114.774 41.5029 113.951 39.3443 112.426 37.7226C111.666 36.9372 110.755 36.3127 109.748 35.8862C108.741 35.4597 107.659 35.2399 106.566 35.2399C105.472 35.2399 104.39 35.4597 103.383 35.8862C102.376 36.3127 101.465 36.9372 100.705 37.7226C99.2109 39.3757 98.409 41.5394 98.4648 43.7668C98.401 45.9955 99.2039 48.1621 100.705 49.8109C101.448 50.6167 102.356 51.2521 103.368 51.6738C104.379 52.0954 105.47 52.2933 106.566 52.2537C107.661 52.2788 108.749 52.0705 109.758 51.6427C110.767 51.2148 111.673 50.5773 112.417 49.7723H112.426Z" fill="#302E3F"/>
<path d="M163.019 33.3683C163.988 34.4368 164.734 35.6867 165.217 37.0456C165.699 38.4046 165.907 39.8456 165.829 41.2855V56.3765H160.673V42.1352C160.673 37.6841 158.433 35.2414 154.88 35.2414C151.124 35.2414 148.546 38.0124 148.546 42.2703V56.3765H143.448V42.2221C143.448 37.8676 141.199 35.2414 137.655 35.2414C133.909 35.2414 131.283 38.051 131.283 42.3669V56.3765H126.069V31.1186H131.128V34.7586C131.89 33.4106 133.002 32.2935 134.346 31.5253C135.691 30.7571 137.217 30.3664 138.766 30.3945C140.369 30.3518 141.952 30.7656 143.33 31.5878C144.708 32.41 145.824 33.6068 146.548 35.0386C147.559 33.5608 148.925 32.361 150.521 31.5495C152.117 30.7379 153.892 30.3407 155.681 30.3945C157.046 30.3327 158.409 30.5664 159.675 31.0796C160.942 31.5929 162.082 32.3736 163.019 33.3683Z" fill="#302E3F"/>
<path d="M165.955 59.1765H34.0359V63.1351H165.955V59.1765Z" fill="#302E3F"/>
</svg>
