<svg width="200" height="84" viewBox="0 0 200 84" fill="none" xmlns="http://www.w3.org/2000/svg">
<path d="M47.3118 58.4718C46.1142 58.6271 45.0079 59.194 44.1825 60.0755C43.357 60.9569 42.8638 62.098 42.7874 63.3032C42.7109 64.5083 43.0559 65.7026 43.7633 66.6813C44.4708 67.66 45.4965 68.3622 46.6649 68.6676C46.9835 68.7449 47.3118 68.7835 47.6304 68.8704H48.2773C48.3561 68.8372 48.4367 68.8082 48.5187 68.7835C49.848 68.5787 51.046 67.8663 51.8608 66.7962C52.6755 65.7261 53.0435 64.3816 52.8871 63.0457C52.7307 61.7098 52.0623 60.4867 51.0225 59.6336C49.9826 58.7805 48.6524 58.364 47.3118 58.4718Z" fill="#302E3F"/>
<path d="M52.3903 24.2732L52.7476 23.9159C53.2899 23.3586 53.6958 22.6833 53.9336 21.943C54.1715 21.2026 54.2348 20.4173 54.1186 19.6484C53.9617 18.3875 53.3448 17.2289 52.3861 16.395C51.4274 15.5611 50.1946 15.1105 48.9241 15.1297C48.215 15.1438 47.5156 15.2977 46.8661 15.5827C46.2166 15.8677 45.6298 16.2781 45.1393 16.7904L23.2607 38.6208L22.9807 38.9008C22.4674 39.4439 22.0789 40.0924 21.8421 40.8011C21.6053 41.5098 21.526 42.2617 21.6097 43.0042C21.7476 44.276 22.3499 45.4522 23.3013 46.3074C24.2527 47.1626 25.4863 47.6367 26.7655 47.6387H27.3352C28.6375 47.4668 29.8427 46.8574 30.7531 45.9104C37.9269 38.698 45.1393 31.447 52.3903 24.2732Z" fill="#302E3F"/>
<path d="M52.3903 33.0595C51.6366 33.048 50.8888 33.1931 50.1941 33.4856C49.4993 33.7781 48.8729 34.2116 48.3545 34.7588C44.4924 38.6208 40.7462 42.4153 36.9227 46.2002C35.8317 47.3298 34.6634 48.4112 33.611 49.5408C33.0439 50.1153 32.624 50.8182 32.387 51.5898C32.15 52.3614 32.1028 53.1788 32.2496 53.9726C32.3994 54.9106 32.8039 55.7895 33.4191 56.5132C34.0343 57.237 34.8366 57.7778 35.7382 58.0767C36.6399 58.3756 37.6063 58.421 38.532 58.2081C39.4577 57.9951 40.3072 57.532 40.9876 56.8691C45.9761 51.9514 50.942 46.9983 55.8855 42.0098C56.3717 41.5325 56.7553 40.9608 57.0126 40.3299C57.27 39.6989 57.3957 39.0221 57.382 38.3408C57.382 38.0222 57.382 37.694 57.2952 37.3753C57.09 36.2055 56.4924 35.1405 55.6008 34.3559C54.7091 33.5714 53.5767 33.1141 52.3903 33.0595Z" fill="#302E3F"/>
<path d="M178.332 57.9312C178.226 57.1838 177.856 56.499 177.29 56.0002C176.769 55.5635 176.203 55.1847 175.6 54.8705C174.789 54.465 173.949 54.185 173.138 53.7795C172.796 53.615 172.472 53.4144 172.172 53.1809C171.972 53.0291 171.838 52.8048 171.8 52.5559C171.762 52.307 171.823 52.0531 171.97 51.8485C172.057 51.7712 172.134 51.6457 172.25 51.6071C172.456 51.4586 172.689 51.3505 172.935 51.2885C173.647 51.138 174.386 51.1915 175.069 51.4429C175.716 51.6843 176.286 52.0126 176.923 52.2926C177.251 51.6457 177.57 50.9216 177.975 50.2747C178.016 50.2211 178.045 50.159 178.059 50.0929C178.073 50.0269 178.072 49.9585 178.056 49.8928C178.041 49.8271 178.011 49.7658 177.968 49.7132C177.926 49.6607 177.872 49.6183 177.811 49.5891C176.458 48.6867 174.848 48.2494 173.225 48.3436C172.016 48.3404 170.834 48.704 169.836 49.3864C169.382 49.7054 169.007 50.1254 168.743 50.6133C168.478 51.1013 168.33 51.6439 168.31 52.1987C168.291 52.7535 168.4 53.3053 168.629 53.8107C168.859 54.3162 169.203 54.7616 169.633 55.1119C170.012 55.4364 170.435 55.7061 170.888 55.9133C171.69 56.3188 172.539 56.6374 173.341 57.0043C173.747 57.1632 174.128 57.3811 174.47 57.6512C174.666 57.7431 174.827 57.8945 174.931 58.0836C175.036 58.2728 175.077 58.49 175.05 58.7043C175.024 58.9186 174.93 59.1189 174.782 59.2766C174.635 59.4343 174.441 59.5413 174.229 59.5822C174.074 59.6497 173.912 59.7015 173.746 59.7367C172.998 59.8658 172.229 59.7821 171.526 59.4953C170.761 59.2202 170.052 58.8115 169.43 58.2885L167.905 60.6636L168.021 60.7891C169.082 61.7252 170.382 62.3488 171.776 62.5908C173.17 62.8329 174.604 62.6838 175.919 62.1602C176.481 61.9559 176.989 61.6237 177.401 61.1897C177.813 60.7557 178.119 60.2319 178.294 59.6595C178.367 59.4488 178.421 59.2324 178.458 59.0126V58.0471C178.332 58.0278 178.332 57.9891 178.332 57.9312Z" fill="#302E3F"/>
<path d="M81.1821 43.2455C81.126 43.236 81.0686 43.238 81.0134 43.2516C80.9582 43.2651 80.9064 43.2898 80.8611 43.3242C80.8158 43.3586 80.7781 43.402 80.7503 43.4515C80.7225 43.5011 80.7051 43.5559 80.6993 43.6124C79.7338 46.4317 78.7683 49.251 77.8028 52.0703C77.0818 53.9631 76.4757 55.8977 75.9876 57.8634C75.9592 58.0557 75.9073 58.2438 75.8331 58.4234C75.7522 58.3329 75.6957 58.2233 75.669 58.1048C75.4662 57.3807 75.3504 56.6565 75.109 55.9228C73.7379 51.7807 72.3283 47.629 70.9186 43.5255C70.913 43.479 70.8977 43.4342 70.8737 43.3939C70.8498 43.3536 70.8177 43.3187 70.7796 43.2915C70.7415 43.2642 70.6981 43.2452 70.6522 43.2356C70.6063 43.2261 70.559 43.2261 70.5131 43.2359H67.4524C67.3565 43.2276 67.2601 43.2442 67.1724 43.2841C67.2121 43.373 67.2382 43.4674 67.2497 43.5641C69.4993 49.7241 71.7586 55.8841 74.0083 62.0538C74.0307 62.1322 74.0773 62.2015 74.1414 62.2518C74.2056 62.3021 74.284 62.3308 74.3655 62.3338H77.1848C77.292 62.3511 77.4018 62.3268 77.4915 62.2657C77.5813 62.2047 77.6443 62.1116 77.6676 62.0055C79.7242 56.2897 81.8193 50.6124 83.9145 44.8869C84.1172 44.3655 84.2717 43.8441 84.4745 43.2841C83.3641 43.2938 82.2731 43.2938 81.1821 43.2455Z" fill="#302E3F"/>
<path d="M107.241 39.8276C107.844 39.5175 108.425 39.1659 108.979 38.7752L107.647 36.3227C107.57 36.3227 107.57 36.3227 107.57 36.3227L107.328 36.4869C106.145 37.3702 104.69 37.8109 103.215 37.7324C102.454 37.689 101.722 37.4261 101.106 36.9754C100.491 36.5248 100.02 35.9058 99.749 35.1931C99.6465 34.8379 99.5659 34.4768 99.5076 34.1117H109.095C109.095 33.3393 109.095 32.6152 109.095 31.891C108.854 29.1972 107.164 26.571 103.659 26.3296C102.416 26.1844 101.158 26.3906 100.026 26.9248C98.8947 27.459 97.9356 28.2998 97.258 29.3517C96.5012 30.5564 96.112 31.9555 96.1379 33.3779C96.0661 34.9271 96.5201 36.4551 97.4263 37.7136C98.3325 38.9721 99.6377 39.8873 101.13 40.3103C103.153 40.9399 105.342 40.7671 107.241 39.8276ZM102.047 29.1103C102.552 29.0086 103.069 28.9826 103.582 29.0331C104.221 29.1595 104.789 29.5194 105.177 30.0425C105.564 30.5657 105.742 31.2144 105.677 31.8621H99.749C99.7911 31.2191 100.036 30.6062 100.449 30.1116C100.862 29.6171 101.422 29.2665 102.047 29.1103Z" fill="#302E3F"/>
<path d="M91.6966 48.3242C90.532 48.2669 89.3727 48.5157 88.3342 49.0459C87.2958 49.5762 86.4144 50.3693 85.778 51.3463C84.8624 52.779 84.4765 54.4867 84.6869 56.1739C84.756 57.3158 85.1137 58.4216 85.7267 59.3875C86.3397 60.3535 87.1879 61.148 88.1918 61.6967C89.6631 62.4226 91.3099 62.7172 92.9416 62.5463C94.5734 62.3755 96.1234 61.7461 97.4124 60.7311C97.4607 60.7311 97.4607 60.6539 97.4993 60.6153C97.0552 59.8042 96.6497 59.0415 96.2056 58.1918L95.9255 58.3946C94.9814 59.0908 93.8677 59.5209 92.7007 59.6401C91.7362 59.7871 90.7515 59.5727 89.9354 59.0381C89.1192 58.5035 88.5293 57.6864 88.2787 56.7436L88.1531 56.0194H97.6152C97.7408 55.1518 97.7408 54.2705 97.6152 53.4029C97.4379 51.9715 96.7331 50.6577 95.6385 49.7184C94.5439 48.7792 93.1383 48.2821 91.6966 48.3242ZM94.2069 53.7987H88.2787C88.359 52.9837 88.7539 52.2322 89.3793 51.7036C89.8089 51.3352 90.3309 51.0911 90.8889 50.9975C91.447 50.904 92.02 50.9645 92.5462 51.1725C93.0673 51.3754 93.5098 51.7398 93.8086 52.2124C94.1075 52.6851 94.2471 53.241 94.2069 53.7987Z" fill="#302E3F"/>
<path d="M160.171 48.3241C159.113 48.276 158.058 48.4772 157.092 48.9116C156.126 49.346 155.276 50.0014 154.61 50.8248C153.638 52.128 153.11 53.7084 153.103 55.3338C153.034 56.8321 153.452 58.3125 154.294 59.5535C155.137 60.7945 156.358 61.7293 157.777 62.2179C159.78 62.8958 161.965 62.7959 163.898 61.9379C164.645 61.6338 165.339 61.2134 165.954 60.6924C165.51 59.8814 165.066 59.08 164.661 58.2689C163.665 59.0955 162.444 59.6035 161.156 59.7269C160.502 59.8175 159.836 59.7509 159.213 59.5326C158.59 59.3143 158.028 58.9506 157.574 58.4717C156.978 57.8214 156.635 56.9784 156.608 56.0965H166.109C166.109 55.3338 166.109 54.6096 166.109 53.8855C166.089 53.1289 165.919 52.3838 165.609 51.6934C165.299 51.003 164.855 50.3811 164.302 49.8637C163.75 49.3464 163.1 48.9439 162.391 48.6796C161.682 48.4153 160.927 48.2945 160.171 48.3241ZM162.672 53.7986H156.705C156.776 53.3315 156.941 52.8836 157.19 52.482C157.439 52.0804 157.766 51.7334 158.153 51.462C158.537 51.2116 158.97 51.0467 159.423 50.9784C159.876 50.9101 160.339 50.94 160.779 51.0662C161.366 51.2252 161.878 51.5867 162.225 52.0867C162.571 52.5867 162.729 53.1931 162.672 53.7986Z" fill="#302E3F"/>
<path d="M83.1227 40.3104C83.7055 40.5113 84.3129 40.6315 84.9282 40.6677C85.9296 40.7576 86.9354 40.5545 87.8234 40.0831C88.7114 39.6117 89.4432 38.8923 89.9296 38.0125C89.9728 37.9476 90.0115 37.8799 90.0455 37.8097V40.349H93.2414V26.6966H89.8813V32.7408C89.9237 33.751 89.6865 34.7533 89.1958 35.6373C88.8803 36.2469 88.3904 36.7488 87.7886 37.079C87.1867 37.4091 86.5002 37.5526 85.8165 37.4911C85.412 37.5076 85.015 37.3782 84.6978 37.1266C84.3806 36.8749 84.1643 36.5178 84.0882 36.1201C83.9695 35.6336 83.9143 35.1338 83.9241 34.6332V26.6194H80.5448V35.4732C80.5522 36.0007 80.6006 36.5269 80.6896 37.047C80.7398 37.7669 80.9958 38.4572 81.4272 39.0358C81.8586 39.6144 82.4471 40.0568 83.1227 40.3104Z" fill="#302E3F"/>
<path d="M136.323 49.087V54.7642C136.332 55.5354 136.198 56.3015 135.927 57.0236C135.691 57.7362 135.245 58.3605 134.646 58.814C134.048 59.2674 133.326 59.5285 132.577 59.5629C132.321 59.6113 132.058 59.6048 131.805 59.5437C131.552 59.4826 131.314 59.3683 131.109 59.2085C130.903 59.0487 130.734 58.8469 130.613 58.6167C130.491 58.3865 130.42 58.133 130.404 57.8732C130.34 57.4743 130.314 57.0702 130.327 56.6663V48.6911H126.938V57.5449C126.946 58.1297 127.014 58.712 127.141 59.2829C127.24 59.9618 127.522 60.6012 127.955 61.1332C128.389 61.6652 128.958 62.0701 129.603 62.3049C130.335 62.569 131.114 62.6776 131.891 62.6236C132.794 62.6128 133.678 62.3656 134.456 61.9065C135.234 61.4474 135.877 60.7925 136.323 60.007C136.323 60.007 136.41 59.8815 136.487 59.8042V62.2567H139.712V48.6042H136.323V49.087Z" fill="#302E3F"/>
<path d="M110.833 48.6911C110.059 48.404 109.234 48.2791 108.41 48.3242C107.488 48.3214 106.583 48.5619 105.784 49.0214C104.986 49.4808 104.323 50.1429 103.862 50.9407C103.823 51.0194 103.767 51.0886 103.698 51.1435V48.6428H100.483V62.2566H103.862V56C103.861 55.5273 103.903 55.0554 103.988 54.5904C104.138 53.6932 104.6 52.8778 105.292 52.2878C105.984 51.6979 106.863 51.3713 107.772 51.3655C108.029 51.3276 108.29 51.3434 108.539 51.412C108.789 51.4806 109.022 51.6005 109.223 51.764C109.423 51.9275 109.588 52.1311 109.706 52.3617C109.823 52.5923 109.892 52.845 109.906 53.1035C109.97 53.5445 109.996 53.9904 109.983 54.4359V62.2469H113.324V53.5573C113.33 52.9647 113.278 52.373 113.17 51.7904C113.122 51.1032 112.875 50.4447 112.461 49.8946C112.046 49.3445 111.481 48.9265 110.833 48.6911Z" fill="#302E3F"/>
<path d="M70.629 32.654H76.4221C76.9917 32.654 76.9048 32.7409 76.9048 32.1712V29.6705H70.629V24.2347H78.1214V21.3381H67.1724V40.3105H70.5904L70.629 32.654Z" fill="#302E3F"/>
<path d="M123.317 59.4374C123.023 59.4491 122.729 59.4017 122.453 59.2982C122.178 59.1948 121.925 59.0372 121.711 58.8348C121.497 58.6324 121.326 58.3893 121.207 58.1197C121.088 57.8502 121.024 57.5596 121.019 57.265C120.942 55.4112 121.019 53.5961 121.019 51.7519C121.019 51.5492 121.135 51.5492 121.261 51.5492H124.157V48.8457H121.058V44.9836C120.932 44.9836 120.855 44.9836 120.778 44.9836H118.074C117.794 44.9836 117.756 45.0705 117.756 45.3505V48.5754C117.773 48.7068 117.773 48.8398 117.756 48.9712H115.941V51.6747H117.717V53.4416C117.717 55.054 117.717 56.705 117.794 58.3174C117.823 59.1603 118.109 59.9743 118.612 60.6507C119.116 61.327 119.814 61.8334 120.614 62.1023C121.39 62.4268 122.225 62.591 123.066 62.585C123.51 62.585 123.954 62.585 124.437 62.585V59.4857C123.964 59.4374 123.636 59.4857 123.317 59.4374Z" fill="#302E3F"/>
<path d="M117.032 37.4526H116.414C116.127 37.4731 115.843 37.3853 115.618 37.2065C115.392 37.0278 115.242 36.7711 115.197 36.4871C115.152 36.1283 115.127 35.7673 115.12 35.4057V21.3381H111.741V35.9561C111.741 36.47 111.779 36.9832 111.857 37.4912C111.915 38.065 112.125 38.6129 112.464 39.0793C112.803 39.5457 113.26 39.9139 113.788 40.1464C114.829 40.5352 115.953 40.6483 117.051 40.4747L117.032 37.4526Z" fill="#302E3F"/>
<path d="M151.51 48.4883C151.051 48.4885 150.592 48.5273 150.139 48.6041C149.4 48.8004 148.721 49.175 148.16 49.6952C147.599 50.2154 147.175 50.8652 146.924 51.5876L146.76 51.9931V48.691H143.535V62.3048H146.924V57.0621C146.916 56.4694 146.968 55.8775 147.079 55.2952C147.167 54.486 147.506 53.7246 148.047 53.1171C148.589 52.5096 149.307 52.0863 150.101 51.9062C150.648 51.8295 151.199 51.7908 151.752 51.7903V48.691C151.752 48.6041 151.588 48.4883 151.51 48.4883Z" fill="#302E3F"/>
</svg>
