<svg width="200" height="84" viewBox="0 0 200 84" fill="none" xmlns="http://www.w3.org/2000/svg">
<path fill-rule="evenodd" clip-rule="evenodd" d="M176.6 7.59998C174.9 7.79998 173.2 8.09998 171.5 8.09998C170.5 8.09998 169.5 8.09998 168.4 7.99998C167.5 7.99998 166.7 7.89998 165.8 7.89998C164.9 7.89998 164 7.89998 163.1 7.99998C161.7 7.99998 160.3 8.09998 158.9 7.99998H154.9C152.9 7.79998 151 7.89998 149 8.09998C147.6 8.19998 146.2 8.29998 144.8 8.29998C142.3 8.29998 139.8 8.09998 137.3 8.09998C135.3 8.09998 133.3 8.09998 131.4 8.19998H128.6L120.3 7.99998C120.1 7.99998 119.8 7.99998 119.6 7.89998C119.3 7.89998 119.1 7.79998 118.8 7.79998C117.4 7.99998 116 8.09998 114.6 8.19998C113.2 8.19998 111.5 7.79998 110 7.79998C109.2 7.79998 108.3 7.89998 107.5 7.99998C106.6 8.09998 105.8 8.19998 104.9 8.19998C102.7 8.19998 100.6 7.99998 98.4 7.99998C97.2 7.99998 96.1 8.09998 94.9 8.19998H93.1C91.5 8.09998 90 7.89998 88.4 7.89998C87.3 7.89998 86.2 8.19998 85.1 8.29998C84.5 8.29998 84 8.19998 83.6 8.09998C83.2 7.99998 82.9 7.89998 82.5 7.89998C80.1 7.89998 77.6 8.19998 75.2 8.19998C72.7 8.19998 70.3 8.19998 67.9 7.99998C65 7.89998 62.1 7.79998 59.1 7.69998C58.8 7.69998 58.5 7.79998 58.2 7.89998C57.7 7.89998 57.4 7.99998 57 7.99998C55.9 7.99998 54.7 7.79998 53.6 7.79998H43.6C43.6 7.79998 39.9 7.99998 38.1 7.99998C35.6 7.99998 33 7.89998 30.5 7.79998C30.1 7.79998 29.7 7.89998 29.3 7.89998H19.4C19.4 7.89998 18.3 6.99998 18.2 6.49998C18 6.29998 18 5.99998 18.1 5.69998C18.2 5.39998 18.4 5.19998 18.6 5.09998C18.7 4.99998 18.9 4.99998 19.1 4.99998C20.8 4.99998 22.5 5.19998 24.2 5.29998C24.5 5.39998 24.7 5.39998 25 5.29998C26.2 4.89998 27.4 5.09998 28.6 5.19998C29.6 5.29998 30.5 5.39998 31.5 5.19998C32.6 5.09998 33.8 4.99998 35 4.99998C35.6 4.99998 36.2 5.19998 36.8 5.19998H46.7L56.1 5.09998C56.5 5.09998 56.8 5.09998 57.2 5.09998C57.9 5.09998 58.6 5.09998 59.4 5.09998C61 5.09998 62.6 5.29998 64.1 5.29998C65.6 5.29998 67.7 4.99998 69.4 4.99998C70.7 4.99998 72.1 5.19998 73.5 5.29998C74.9 5.29998 76.1 5.39998 77.3 5.39998H88.2C89.1 5.39998 90 5.09998 90.9 4.99998C91.3 4.99998 91.8 4.99998 92.3 5.09998C92.8 5.19998 93.3 5.19998 93.8 5.19998C97.4 4.99998 101 5.09998 104.7 5.29998C106.6 5.49998 108.4 5.39998 110.3 5.19998C112.1 4.99998 113.9 4.89998 115.7 5.09998C117.1 5.09998 118.6 5.19998 120 5.29998C120.6 5.29998 121.2 5.19998 121.8 5.09998H127.2C128.1 5.09998 129 5.19998 129.9 5.19998H145.8C148.5 5.19998 151.1 5.29998 153.8 5.39998C155.6 5.39998 157.5 5.39998 159.4 5.39998C160.4 5.39998 161.3 5.39998 162.2 5.39998C164.3 5.39998 166.4 5.19998 168.5 5.19998C169.5 5.19998 170.5 5.39998 171.5 5.39998H180.7C181.4 5.29998 182.1 5.79998 182.2 6.49998C182.2 6.59998 182.3 6.69998 182.3 6.69998C182.3 7.59998 181.6 7.89998 180.8 7.89998H176.9L176.6 7.59998ZM31.1 9.29998C27.7 9.29998 24.2 9.09998 20.8 9.09998V8.99998H19.1C18.8 8.99998 18.5 9.19998 18.3 9.49998C18.1 9.79998 18 10.1 18.1 10.5V10.6C18.1 10.9 18.3 11.2 18.5 11.4C18.7 11.6 19.1 11.7 19.4 11.7H30L41.5 11.6H48.7C49.3 11.7 49.9 11.8 50.5 11.8C52.6 11.3 54.8 11.3 56.8 11.8C57.1 11.9 57.5 11.9 57.8 11.8C58.4 11.2 59.1 11.3 59.7 11.4C59.9 11.4 60.2 11.5 60.4 11.5C60.7 11.5 61 11.6 61.4 11.7C61.7 11.8 62 11.9 62.3 11.9C64.3 11.8 66.3 11.6 68.3 11.6C68.7 11.6 69.1 11.6 69.5 11.7C69.9 11.8 70.3 11.8 70.8 11.8C71.8 11.8 72.7 11.6 73.7 11.6C74.4 11.6 75.1 11.6 75.9 11.6C77.4 11.6 78.8 11.6 80.1 11.6C82 11.6 84 11.7 85.8 11.8C87.2 12 88.7 12.1 90.1 12.1C92.1 11.7 94.1 11.7 96.1 12.1C96.5 12.2 97 12.2 97.4 12.1L102.5 11.8C102.9 11.8 103.2 11.9 103.6 11.9H106.6C109.7 12 112.9 12.1 116 12.1C117.9 12.1 119.8 11.8 121.7 11.8C122.1 11.8 122.6 11.8 123 11.9C123.4 12 123.8 12 124.1 12H135.5C136.8 12 138 12.2 139.2 12.2C141 12.2 142.9 12.1 144.7 12.1C145.1 12.1 145.7 12.1 146.1 12.1C146.5 12.1 146.9 12.1 147.2 12.1C147.8 12.1 148.4 11.8 149 11.8H158.4L163.5 11.6C164.1 11.8 164.7 11.9 165.3 11.9C166.7 11.8 168.1 11.6 169.4 11.5C169.8 11.5 170.3 11.6 170.7 11.7C171.2 11.9 171.7 11.9 172.2 11.9C173.7 11.4 175.3 11.4 176.8 11.9C177.1 11.9 177.5 11.9 177.8 11.7C178.1 11.6 178.4 11.6 178.6 11.6C179.1 11.7 179.8 11.8 180.4 11.9C180.5 11.9 180.7 11.9 180.8 11.9C181.1 11.9 181.4 11.7 181.6 11.5C181.8 11.2 181.9 10.9 181.8 10.6C181.9 9.49998 181.2 9.49998 180.5 9.49998H169.8C169.4 9.49998 169.1 9.39998 168.7 9.29998C168.3 9.19998 167.9 9.19998 167.5 9.09998C165.8 9.19998 164.2 9.49998 162.5 9.49998C162 9.49998 161.4 9.39998 160.9 9.29998C160.4 9.19998 159.9 9.09998 159.4 9.09998C156 9.19998 152.6 9.39998 149.1 9.49998C148.6 9.49998 148.1 9.39998 147.6 9.29998C147.5 9.09998 147 8.99998 146.6 8.99998C139.5 8.99998 132.3 9.19998 125.2 9.19998C124 9.29998 122.9 9.19998 121.7 9.19998C121.1 9.19998 120.5 9.19998 120 9.19998C119.6 9.09998 119.1 8.99998 118.7 8.99998C118.1 8.99998 117.6 9.29998 117.1 9.29998H109L93.4 9.49998H87.6C86.3 9.49998 84.9 9.29998 83.6 9.29998C79.9 9.09998 76.3 8.99998 72.6 8.99998C70.7 8.99998 68.7 9.29998 66.7 9.29998C66 9.29998 65.3 9.29998 64.6 9.19998C64 9.09998 63.4 9.09998 62.8 9.09998C62.5 9.09998 62.2 9.09998 61.9 9.19998C61.6 9.19998 61.3 9.29998 61.1 9.29998C59.7 9.19998 58.3 9.09998 57 8.99998H56.5C54 9.09998 51.5 8.99998 49.1 9.09998C47.5 9.19998 45.9 9.09998 44.3 9.09998C43.5 9.09998 42.7 9.09998 41.9 9.09998C38.3 9.09998 34.5 9.29998 31.1 9.29998ZM37.5 60.6C40.1 57.9 41.5 54.2 41.3 50.3L41.2 48.3C41.2 46.8 41.2 46.6 39.6 46.3C38 46.2 36.3 46.2 34.7 46.5C34.6 46.5 34.5 46.5 34.5 46.5C34.2 46.5 34 46.7 33.8 46.9C33.6 47.1 33.6 47.4 33.6 47.7V52.1C33.7 53.4 33.1 54.6 32 55.1C30.5 55.8 28.7 55.2 27.8 53.8C27.1 53.1 26.8 52.1 26.9 51.1C27 50.5 26.9 50 26.7 49.4C26.5 48.8 26.4 48.2 26.6 47.6C26.9 45.8 27 43.9 26.7 42C26.7 41.3 26.7 40.6 26.7 39.9C26.7 38.5 26.7 37.2 26.7 35.9C26.9 34.3 26.9 32.7 26.7 31.1C26.4 29.8 27 28.5 28.2 28C28.3 27.9 28.4 27.9 28.5 27.8C29.4 27.3 30.2 26.9 31.1 27.8C31.4 27.9 31.6 27.9 31.9 28C32.9 28.3 33.6 29.2 33.6 30.3C33.7 31.2 33.6 32.1 33.5 33C33.4 33.5 33.4 34.1 33.4 34.6C33.4 34.8 33.4 34.9 33.4 35.1C33.6 35.9 34.4 36.5 35.2 36.3C36.3 36.3 37.4 36.5 38.5 36.7C40.8 37.2 41.7 36.3 41.2 34C40.9 32.6 40.8 31.1 41 29.6C41.4 27.1 40.3 24.6 38.1 23.3C37.6 23 37.2 22.5 36.8 22.2C34.2 20.1 30.7 19.3 27.4 20.2C26 20.7 24.7 21.3 23.5 22.1C22.4 22.5 21.5 23.1 20.7 24C18.9 26.2 17.9 29.1 18 32C18.2 34.1 18.1 36.3 18 38.4C17.9 40.1 17.9 41.9 18 43.6C18.1 45.1 18.1 46.7 18.1 48.2C18.1 50.5 18.1 52.7 18.3 55C18.4 56.2 18.9 57.3 19.7 58.2C20 58.5 20.3 58.8 20.6 59.1C22.3 62.4 25.9 62 28.6 63.2C31.2 63.1 33.8 62.5 36.3 61.5C36.9 61.1 37.2 60.9 37.5 60.6ZM107.4 49.4C108.4 48.7 109.5 48.9 110.6 49C110.9 49 111.3 49.1 111.6 49.1C112.3 49.1 112.3 49.7 112.2 50.4C112 51.9 112.3 53.3 113.2 54.5C114.2 55.9 116 56.5 117.7 55.8C120.1 55.3 120.4 52.2 119.6 50.3C118.7 48.2 117.1 46.5 115.2 45.5C113 44.2 111 42.6 109.1 40.9C107.2 39 105.9 36.6 105.4 34C104.7 31 105.3 27.7 107 25.1C108.7 22.5 111.5 20.8 114.6 20.5C116.3 20.3 118 20.5 119.6 20.8C123.7 21.7 125.8 24.5 126.8 28.4C127.3 29.7 127.5 31.1 127.3 32.5C127.3 33.5 126.5 34.4 125.5 34.4H125.3C123.8 33.8 122.3 34.2 120.8 33.7C120.7 33.7 120.7 33.7 120.6 33.6C120.2 33.5 119.8 33.4 119.9 32.8C120.1 29.5 119.3 26.6 115.4 27.4C113.6 27.8 112.5 29.6 112.8 31.4C112.9 32 113.2 32.5 113.5 32.9C114.7 34.4 116.2 35.8 117.8 36.9C119.3 38.2 120.9 39.2 122.4 40.4C124.4 42.1 126 44.3 127 46.8C127.8 48.6 128 50.7 127.4 52.6C127.2 53.1 127.1 53.6 127.1 54.1C127 56 126.1 57.8 124.6 59C124.3 59.2 124.1 59.5 123.8 59.7C122.2 61.5 119.9 62.5 117.5 62.4C114.9 62.6 112.2 62.2 109.7 61.5C109.4 61.5 109.2 61.4 109 61.2C108.2 59.9 106.9 58.9 106.2 57.6C105.2 56.1 104.7 54.3 104.9 52.5C105 51.9 105 51.3 104.9 50.6C104.9 49 105.1 48.7 106.6 48.7C106.9 49.2 107.2 49.3 107.4 49.4ZM71.2 30.9C71.1 29.5 71 28 71 26.6C71 25.2 71.1 23.8 71.1 22.3C71 21.2 70.8 21.1 69.8 21.2C68 21.4 66.3 21.4 64.5 21.2C62.8 21.1 62.4 21.4 62.3 23.1C62.1 24.7 62.3 26.3 62.4 28C62.6 30.2 62.7 32.5 62.2 34.7C62.2 35.1 62.3 35.5 62.5 35.9C62.7 36.4 62.8 36.8 63 37.3C63 37.4 63 37.5 63 37.6C63 37.8 62.9 37.9 62.8 38C62.7 38.1 62.5 38.2 62.4 38.2C60.6 37.9 58.7 37.9 56.9 38.3C56.1 38.5 55.3 38 55.1 37.2C55.1 35.7 55 34.3 54.8 32.8C55 31 55.2 29.2 55.2 27.4C55.1 26.4 55.2 25.4 55.2 24.4C55.2 23.7 55.3 23.1 55.3 22.4V22.3C55.4 21.8 55 21.2 54.5 21.1C53.7 20.9 52.9 21 52 21C51 21.1 50 21.2 48.9 20.7C48.4 20.7 47.9 20.8 47.4 21H47C46.9 21 46.8 21 46.7 21C46.5 21.1 46.3 21.3 46.2 21.5C46.1 21.7 46.1 22 46.2 22.2C46.3 23.6 46.3 25 46.2 26.4C46 27 46 27.5 46 28C46.3 28.6 46.2 29.3 46.2 29.9C46.2 30.5 46.2 31.1 46.4 31.5C46.8 32.3 46.6 32.9 46.3 33.5C46.2 33.9 46 34.2 46 34.6V35.9C45.9 37.7 45.9 39.4 46 41.2C46 43.2 46 45.2 45.9 47.2C45.9 48.2 46 49.2 46.1 50.2C46.2 51.5 46.3 52.7 46.2 54C46.1 56.1 46.1 58.2 46.2 60.3C46.2 61.9 48 62.1 48 62.1H53C53.8 62.1 54.4 61.5 54.5 60.7C54.8 57.7 54.8 54.7 54.5 51.7C54.2 50.5 54.3 49.3 54.7 48.2C55 47.7 55 47.1 54.7 46.6C54.3 45.9 54.7 45.6 55.4 45.6C57.6 45.8 59.7 45.7 61.9 45.4C62.2 45.3 62.5 45.4 62.7 45.6C62.9 45.8 62.9 46.1 62.8 46.4C62.6 47.4 62.5 48.5 62.5 49.5C62.7 50.6 62.8 51.7 62.8 52.7C62.5 54.2 62.6 55.6 62.6 57.1C62.6 58.2 62.6 59.3 62.5 60.3C62.4 61.9 62.8 62.3 64.2 62.3C66 62.3 67.9 62.3 69.7 62.2C70.9 62.1 71.4 61.1 70.9 59.7C70.8 59.4 70.8 59 70.8 58.7C70.9 54.7 70.9 50.6 70.9 46.6C71.2 45.5 71.4 44.3 71.5 43.1C71.2 40.7 71.1 38.4 71.3 36C71.4 34.3 71.3 32.6 71.2 30.9ZM148.3 37.5H144.6C144.1 37.5 143 37.5 141.9 37.5C141.2 37.5 140.9 37.3 141 36.5C141.4 34 141.3 31.4 140.7 28.9C140.7 28.8 140.7 28.7 140.7 28.5C140.7 28.3 140.8 28.2 140.9 28.1C141 28 141.2 28 141.3 28C141.7 28 142.1 28.1 142.5 28.2C143.8 28.6 145.3 28.7 146.6 28.3C147.4 28.2 148.1 28.2 148.9 28.3C149.7 28.3 150.8 28.4 151.6 28.5C152.4 28.5 152.9 28.1 152.7 27.4C152.5 25.9 152.5 24.5 152.7 23C152.7 21.3 152.7 21.3 150.9 21.3C149.6 21.2 148.2 21.3 146.9 21.4C145 21.5 143.2 21.6 141.3 21.3C140.2 21.1 139 21.2 137.9 21.2C136.9 21.3 135.8 21.3 134.9 21.2C132.9 20.9 132.3 21.8 132.6 23.9C132.9 25.4 132.9 26.9 132.9 28.5C132.8 30 132.8 31.4 132.9 32.9C133.1 35.7 133.1 38.6 133.1 41.5C133.1 42.2 133.1 42.9 133.1 43.7C133.1 44.8 133 45.9 133 47C132.9 48 132.9 49.1 132.9 50.1C132.9 51.8 133.1 53.2 133.1 55.1C133.2 57 133.2 58.9 133.1 60.8C133 61.5 133.1 62.1 134 62.1C135.7 62.2 137.4 62.1 139 62C141 61.7 143 61.7 145 61.9C145.7 61.9 146.3 61.9 147 61.9C148.4 61.9 149.8 61.9 151.3 62.1C152.7 62.3 153.1 61.6 153.1 60C152.8 58.7 152.7 57.3 152.8 56C152.9 55 152.5 54.8 151.6 54.8C150.6 54.8 149.7 54.8 148.7 54.8C146.8 54.8 144.9 54.7 143 54.8C141.2 54.9 141 54.8 141.2 52.9C141.2 52.6 141.3 52.3 141.3 52.1C141.7 50.7 141.7 49.3 141.3 47.9C141.2 47.4 141.2 46.9 141.2 46.5C141.2 46 141.3 45.5 141.1 45C141.1 44.9 141.1 44.9 141.1 44.8C141.1 44.6 141.2 44.5 141.4 44.3C141.5 44.2 141.7 44.1 141.9 44.2C142.8 44.3 143.7 44.3 144.6 44.2C145.9 44.3 147.2 44.3 148.5 44.1H148.6C148.8 44.1 148.9 44 149 43.9C149.1 43.8 149.2 43.6 149.2 43.4C149.1 42.7 149.3 42 149.4 41.3C149.6 40.5 149.7 39.7 149.6 38.8C149.6 38.7 149.6 38.7 149.6 38.6C149.6 38.3 149.5 38 149.3 37.9C148.8 37.6 148.5 37.5 148.3 37.5ZM172.4 21.6H166.3C164.1 21.5 161.8 21.5 159.5 21.4C158.7 21.4 158.2 21.7 158.4 22.5C158.6 24 158.6 25.4 158.4 26.9C158.4 32 158.4 37.1 158.3 42.1C158.5 44.6 158.4 47.1 158.2 49.5C158.2 50.7 158.3 51.9 158.6 53C158.7 54.1 158.6 55.3 158.6 56.4C158.5 57.7 158.4 59.1 158.6 60.5C158.8 61.7 158.8 61.8 160.1 61.8C161.9 61.6 163.7 61.5 165.5 61.5C166.3 61.6 166.5 61 166.6 60.3C166.7 58.5 166.6 56.7 166.4 54.9V46.8C166.3 46.3 166.3 45.8 166.4 45.3C166.9 44.5 169.7 44.9 170.4 45.1H170.6C171.4 45.2 172 45.6 172.5 46.2C173 46.8 173.2 47.6 173.1 48.3C173.2 49.8 173.1 51.3 173 52.7C172.7 55 172.9 57.3 173.6 59.5C173.8 60.5 174.5 61.3 175.5 61.6C176.8 61.9 178.2 62 179.6 62.1C182.6 62.4 182.5 61.4 181.8 59.3C181.7 58.9 181.5 58.5 181.3 58.1C181 57.5 180.8 56.9 180.8 56.2C180.6 53.7 180.5 51.1 180.6 48.6C181.2 46 179.9 43.2 177.4 42.1C176.8 41.8 176.7 41.5 177.4 41.1C179.4 40.1 180.6 38 180.2 35.7C180.1 35 180.1 34.3 180.3 33.6C180.8 32 180.5 30.5 180.3 29C180.2 28.4 180.1 27.7 180 27.1C179.9 26.3 179.7 25.6 179.3 24.9C177.8 22.9 175.2 21.5 172.4 21.6ZM89.1 54C88.1 54.1 87.1 54.2 86.1 54.2C85.4 54.1 84.8 54.6 84.7 55.3V55.4C84.4 56.9 84.3 58.3 84.2 59.8C84.2 61.8 84 62 82 61.9C80.3 62.1 78.7 62.1 77 61.9C76.5 61.8 76.2 61.4 76.3 60.9C76.3 60 76.4 59.1 76.6 58.2C77.3 56.3 77.7 54.2 77.7 52.2C77.7 51.7 77.8 51.2 78 50.8C78.7 49.1 79.2 47.3 79.3 45.4C79.3 43.8 79.6 42.2 80.4 40.8C80.7 40.1 80.8 39.3 80.8 38.5C81.6 34.3 82.5 30.2 83.4 26C83.9 24.8 84.1 23.4 84 22.1C83.7 21.4 84.5 21.4 85 21.4H89.3C90.1 21.5 90.8 21.5 91.6 21.4C93.3 21.1 93.7 21.4 93.9 23.1C94.4 25 94.7 26.9 94.7 28.9C94.8 29.7 95 30.5 95.4 31.3C96 33.2 95.8 35.3 96.3 37.2C96.9 39.1 97.4 41.1 97.7 43.2C97.9 45.2 98.3 47.2 99 49.2C99.1 49.6 99.1 50.1 99 50.5C99 51.5 99.2 52.5 99.6 53.3C100.1 54.3 100.4 55.4 100.3 56.5C100.1 57.8 100.3 59.2 101 60.3C101.6 61.4 101.3 61.6 100.1 61.9C98.7 62.1 97.2 62 95.8 61.7C95.5 61.6 95.1 61.7 94.7 61.7C94.1 61.8 93.6 61.9 93.1 61.5C92.8 60.7 92.6 59.9 92.7 59.1C92.2 57.6 92 56.1 92.1 54.6C92.1 54.1 91.9 54 91.5 54H89.1ZM172.9 36C172.9 35.2 172.9 34.4 172.8 33.6C172.7 32.7 172.7 31.8 172.7 31C172.9 30.1 172.6 29.2 171.9 28.6C171.2 28 170.3 27.8 169.5 28.1C169 28.2 168.6 28.3 168.1 28.3C166.8 28.4 166.5 28.7 166.6 29.9C166.5 31.6 166.6 33.2 166.8 34.9C167 35.6 166.7 36.3 166.5 36.9C166.2 37.8 165.9 38.6 166.6 39.2C167.7 39.6 168.9 39.6 170.1 39.2C171.7 39.1 173 37.7 172.9 36ZM87.6 47.2C86.3 47.1 86.2 46.9 86.3 45.5C86.3 45.2 86.3 44.8 86.4 44.5C87.2 42.1 87.7 39.6 87.7 37.1V36.3C87.7 36.1 87.9 35.9 88.1 35.9C88.4 35.9 88.7 36 88.7 36.3C88.8 36.5 88.8 36.7 88.8 36.9C88.4 38.1 88.7 39.2 89 40.3C89.1 40.8 89.3 41.3 89.4 41.8C89.7 43.5 90.1 45.2 90.5 46.9C90.6 47.5 90.6 47.7 89.9 47.5C89.2 47.3 88.4 47.2 87.6 47.2ZM107.6 49.6C107.5 49.7 107.5 49.7 107.5 49.5L107.6 49.6ZM176.1 74.5C176.9 74.7 177.7 74.8 178.5 74.6L178.4 74.5H179.7C181.2 74.5 181.9 74.1 181.9 73.2C181.9 72.3 181.3 71.9 179.8 71.7C178.8 71.6 177.8 71.7 176.7 71.8C175.7 71.9 174.6 72 173.6 71.9C171.6 71.7 169.6 71.7 167.6 71.9C166.2 72 164.8 71.9 163.5 71.9C162 71.9 160.5 71.8 158.9 71.9C157.3 72 155.6 72 154 71.9C153.2 71.9 152.4 71.9 151.6 71.9C150.6 71.9 149.7 71.9 148.8 71.9C146.9 71.9 145.1 72 143.3 71.9C140.9 71.7 138.5 71.7 136.2 71.9C134.8 72.1 133.4 72.1 132.1 71.9C130.5 71.7 128.9 71.7 127.3 71.9C126 72.1 124.7 72.1 123.4 72C120.6 71.9 117.7 71.9 114.9 71.9C111.7 72.2 108.5 72.2 105.3 71.9C103.7 71.5 102 71.6 100.4 72.2C100.1 72.3 99.7 72.3 99.4 72.2C97.2 71.8 95 71.7 92.8 71.9C92.3 71.9 91.7 72 91.2 72C90.6 72.1 90 72.2 89.3 72.1C87.5 71.8 85.6 71.7 83.8 71.8C79.9 72.2 75.9 72.3 72 72.1L51.5 72C47.9 72 44.3 71.8 40.6 71.8C38.4 71.7 36.1 71.7 33.9 71.8C32.1 72 30.2 72 28.4 71.8C27.2 71.6 25.9 71.6 24.7 71.7C24.3 71.8 23.9 71.8 23.5 71.7C22.2 71.3 20.9 71.2 19.6 71.6C19.4 71.6 19.3 71.6 19.1 71.6C18.2 71.8 17.6 72.6 17.8 73.5C18 74.6 18.8 74.5 19.5 74.5C19.6 74.5 19.6 74.5 19.7 74.5C21.6 74.6 23.5 74.6 25.3 74.5C29.4 74.6 33.7 74.6 37.7 74.6C39.3 74.6 40.9 74.5 42.4 74.5C44.8 74.4 47.2 74.3 49.6 74.4C54.3 74.5 58.9 74.5 63.6 74.5C65.1 74.6 66.7 74.6 68.2 74.5C69.8 74.2 71.5 74.3 73.1 74.9C73.6 75.1 74.1 75.1 74.5 74.9C76.7 74.3 79 74.2 81.3 74.7C82.7 74.8 84.1 74.8 85.4 74.8C86.2 74.8 87 74.7 87.8 74.7C88.8 74.6 89.9 74.5 90.9 74.6C93.7 74.9 96.6 74.9 99.4 74.6C100 74.5 100.6 74.5 101.2 74.6C102.4 75 103.6 75.1 104.9 74.9C108.2 74.3 111.5 74.2 114.8 74.5C117.7 74.8 120.6 74.8 123.5 74.4C124.9 74.1 126.4 74.1 127.9 74.4C128.9 74.6 129.8 74.6 130.8 74.4C132.8 74.2 134.8 74.1 136.9 74.2C142.5 74.3 148.2 74.3 153.8 74.4C156.6 74.2 159.5 74.2 162.3 74.4C163.1 74.3 164 74.3 164.8 74.3C166 74.6 167.1 74.5 168.3 74.4C169.3 74.3 170.2 74.2 171.2 74.3C172.1 74.4 173.1 74.4 174.1 74.3C174.7 74.2 175.4 74.3 176.1 74.5ZM21 75.7H21.1C23.6 76.1 26.1 76.1 28.5 75.6C29.4 75.4 30.3 75.5 31.2 75.8C32.1 76 33 76 33.9 75.7C36 75.5 38.2 75.5 40.4 75.9C41.4 76.1 42.3 76.1 43.3 75.9C45.3 75.6 47.3 75.5 49.4 75.7C50.1 75.7 50.9 75.7 51.6 75.7C53.6 75.7 55.7 75.7 57.8 75.8C59.2 75.9 60.7 75.9 62.1 75.8C64.2 75.7 66.2 75.6 68.3 76.1C71.6 75.8 75 75.9 78.3 76C80 76.1 81.6 76.1 83.3 76.1C84.9 76.2 86.5 76.2 88 75.8C88.3 75.7 88.7 75.7 89 75.8C91 76 93.2 76 95.5 76C96.7 76 97.9 76 99.2 76C101.9 76 104.4 76 107 75.9C107.7 75.9 108.4 75.9 109 75.9C110.4 75.9 111.7 75.8 113.1 75.9C114.7 76 116.3 76 117.9 75.9C119.2 75.9 120.4 75.8 121.7 75.9C123.2 76 124.8 76 126.3 75.9C127.4 75.6 128.5 75.5 129.6 75.5C130.6 75.6 131.5 75.7 132.5 75.8C133.1 76.1 133.9 76.1 134.6 75.8C135 75.6 135.5 75.6 135.9 75.6C137.3 75.6 138.7 75.6 140.1 75.6C143.6 75.6 147.1 75.5 150.6 75.7C153.3 75.9 156.1 75.9 158.8 75.7C161 75.5 163.2 75.6 165.4 75.6C166.5 75.6 167.7 75.7 168.8 75.7C170.1 75.7 171.3 75.7 172.6 75.8C175.1 75.9 177.6 76 180.2 75.7C180.6 75.6 181 75.7 181.3 75.9C181.6 76.1 181.9 76.4 182 76.8C182 76.9 182 77.1 182 77.2C181.9 78.1 181.1 78.7 180.3 78.6C178.1 78.1 175.8 78 173.5 78.3C171.3 78 169.2 78.1 167.1 78.6C166.8 78.7 166.4 78.7 166.1 78.6C163.8 78 161.4 78 159.1 78.5C158.5 78.5 158 78.4 157.4 78.3C156.9 78.2 156.4 78.1 155.8 78.1L149.9 78.3C146.9 78.4 144 78.4 141 78.3C139.5 78.3 138 78.3 136.5 78.3C135.3 78.3 134.1 78.3 132.8 78.3C130.4 78.3 128 78.2 125.6 78.3C123 78.4 120.4 78.3 117.8 78.3C115.2 78.3 112.6 78.2 110 78.3C107 78.6 104 78.5 101.1 78.2C101 78.2 100.8 78.2 100.7 78.2C99.8 78.6 98.8 78.5 97.9 78.5C97.2 78.5 96.6 78.4 95.9 78.5C94.7 78.4 93.5 78.4 92.4 78.5C90.8 78.8 89.1 78.8 87.5 78.5C85.6 78.3 83.7 78.4 81.8 78.9C81.5 79 81.2 79 81 78.9C78.8 78.5 76.6 78.5 74.5 78.9C73.4 78.9 72.3 78.8 71.3 78.6C69.3 78.6 67.2 78.7 65.2 78.9C64.1 78.8 63 78.7 62 78.4C61.6 78.3 61.2 78.2 60.8 78.3C58.9 78.6 57 78.5 55.2 78.5C53.7 78.4 52.2 78.4 50.7 78.5C47.9 78.7 45 78.7 42.2 78.6C40.8 78.6 39.3 78.5 37.9 78.5L21.7 78.4H19.6C19 78.3 18.6 77.8 18.7 77.2C18.6 76.9 18.7 76.7 18.8 76.5C18.9 76.3 19.2 76.1 19.4 76.1H19.6L21 75.7Z" fill="#302E3F"/>
</svg>
