<svg width="50" height="50" viewBox="0 0 50 50" fill="none" xmlns="http://www.w3.org/2000/svg">
<path d="M25.0496 49.9999C11.2463 49.9999 0.0496474 38.7785 0.0744736 24.9751C0.0744736 14.9453 6.08242 5.88375 15.3426 1.96121C28.0784 -3.32678 42.7011 2.73082 47.9891 15.4915C53.2274 28.128 47.3436 42.6017 34.7815 48.0138C31.7031 49.3296 28.3764 49.9999 25.0496 49.9999ZM23.1629 21.0526C23.0387 21.0526 22.8898 21.0526 22.7656 21.0526C20.7795 21.0774 18.8679 21.6732 17.2294 22.7904C13.6544 25.3723 12.8351 30.3376 15.3923 33.9374C15.7895 34.5084 16.2612 35.0049 16.8073 35.4518C17.5521 36.1221 18.421 36.6683 19.3396 37.0903C20.3327 37.5124 21.3754 37.7358 22.4429 37.7854C22.5919 37.7854 22.7408 37.7854 22.8649 37.7854C24.7021 37.7854 26.5144 37.2144 28.0288 36.1966L28.4508 35.9235V31.6285C27.0109 32.9195 25.1738 33.6643 23.2373 33.7636C23.138 33.7636 23.0387 33.7636 22.9394 33.7636C21.4747 33.6891 20.0844 32.994 19.1658 31.852C18.2473 30.6851 17.999 29.1459 18.4955 27.7556C18.8431 26.8867 19.4886 26.1419 20.283 25.6454C21.1023 25.1489 22.0208 24.8262 22.9891 24.7269C23.2373 24.702 23.4856 24.702 23.7587 24.702C25.3724 24.7765 26.9613 25.0992 28.4508 25.6951V21.9463C26.7378 21.3753 24.9752 21.0774 23.1629 21.0526ZM24.9007 14.4488C25.0497 14.4488 25.1738 14.4488 25.3227 14.4488C26.7627 14.5233 28.1033 15.1439 29.0715 16.1866C30.0645 17.2542 30.6107 18.6444 30.6107 20.0843V33.9622C30.6107 35.6504 32.001 37.0407 33.6892 37.0407H37.7358V33.0933H34.9305V20.4319C34.9553 15.1191 30.7349 10.7745 25.4469 10.6256C25.2979 10.6256 25.149 10.6256 25.0248 10.6256C22.2691 10.5263 19.5879 11.4945 17.5521 13.3316C15.9384 14.8957 15.0695 17.0804 15.1192 19.3147H19.4389C19.3893 18.1479 19.7865 17.0059 20.5561 16.1122C21.6981 14.9701 23.287 14.3495 24.9007 14.4488Z" fill="white"/>
</svg>
