<svg width="70" height="70" viewBox="0 0 70 70" fill="none" xmlns="http://www.w3.org/2000/svg">
<path d="M59.255 33.7398C59.255 33.6698 59.185 33.6348 59.115 33.6348C59.045 33.6348 59.01 33.6698 58.975 33.7398L57.54 38.4298V38.4648V38.4998C57.54 38.5698 57.61 38.6398 57.68 38.6398H60.515C60.585 38.6398 60.655 38.5698 60.655 38.4998C60.655 38.4998 60.655 38.4998 60.655 38.4648V38.4298L59.255 33.7398Z" fill="white"/>
<path d="M12.32 33.7398C12.32 33.6698 12.25 33.6348 12.18 33.6348C12.11 33.6348 12.075 33.6698 12.04 33.7398L10.605 38.4298V38.4648V38.4998C10.605 38.5698 10.675 38.6398 10.745 38.6398H13.58C13.65 38.6398 13.72 38.5698 13.72 38.4998C13.72 38.4998 13.72 38.4998 13.72 38.4648V38.4298L12.32 33.7398Z" fill="white"/>
<path d="M0 0V70H70V0H0ZM19.46 43.89H15.75C15.645 43.89 15.575 43.82 15.54 43.75L14.91 41.825C14.875 41.755 14.805 41.685 14.7 41.685H9.695C9.59 41.685 9.52 41.755 9.485 41.825L8.785 43.75C8.75 43.82 8.68 43.89 8.575 43.89H4.865C4.725 43.89 4.62 43.785 4.62 43.645C4.62 43.61 4.62 43.575 4.62 43.575L10.57 28.875C10.605 28.805 10.675 28.735 10.78 28.735H13.545C13.615 28.735 13.72 28.77 13.755 28.875V28.91L19.635 43.61V43.645C19.635 43.68 19.635 43.68 19.635 43.715C19.705 43.82 19.6 43.89 19.46 43.89ZM23.38 36.26C23.38 36.295 23.38 36.33 23.38 36.365C23.31 38.71 25.13 40.705 27.475 40.775C28.91 40.775 30.24 39.97 30.905 38.71C30.94 38.64 31.01 38.605 31.08 38.605H34.79C34.93 38.605 35.035 38.71 35.035 38.85C35.035 38.885 35.035 38.885 35.035 38.92C35.035 38.92 35.035 38.92 35.035 38.955C33.95 42.14 30.905 44.275 27.545 44.24C23.205 44.24 19.67 40.74 19.635 36.4C19.635 32.06 23.135 28.525 27.475 28.49C30.905 28.42 33.985 30.59 35.07 33.845V33.88C35.07 33.915 35.07 33.915 35.07 33.95C35.07 34.09 34.965 34.195 34.825 34.16H31.15C31.08 34.16 31.01 34.125 30.975 34.055C30.975 34.055 30.975 34.02 30.94 34.02C30.275 32.725 28.945 31.885 27.475 31.885C27.44 31.885 27.405 31.885 27.37 31.885C25.06 31.955 23.275 33.95 23.38 36.26ZM44.1 44.205C39.76 44.205 36.225 40.705 36.19 36.33C36.19 31.99 39.69 28.455 44.065 28.42C47.495 28.35 50.575 30.52 51.66 33.775V33.81C51.66 33.845 51.66 33.845 51.66 33.88C51.66 34.02 51.555 34.125 51.415 34.09H47.67C47.6 34.09 47.53 34.055 47.495 33.985L47.46 33.95C46.795 32.655 45.465 31.815 43.995 31.815C43.96 31.815 43.925 31.815 43.89 31.815C41.58 31.92 39.795 33.915 39.9 36.225C39.9 36.26 39.9 36.295 39.9 36.33C39.83 38.675 41.65 40.67 43.995 40.74C45.43 40.74 46.76 39.935 47.425 38.675C47.46 38.605 47.53 38.57 47.6 38.57H51.31C51.45 38.57 51.555 38.675 51.555 38.815C51.555 38.85 51.555 38.85 51.555 38.885C51.555 38.885 51.555 38.885 51.555 38.92C50.505 42.105 47.46 44.24 44.1 44.205ZM66.395 43.89H62.65C62.545 43.89 62.475 43.82 62.44 43.75L61.81 41.825C61.775 41.755 61.705 41.685 61.6 41.685H56.63C56.525 41.685 56.455 41.755 56.42 41.825L55.72 43.75C55.685 43.82 55.615 43.89 55.51 43.89H51.8C51.66 43.89 51.555 43.785 51.555 43.645C51.555 43.61 51.555 43.575 51.555 43.575L57.505 28.875C57.54 28.805 57.61 28.735 57.715 28.735H60.48C60.55 28.735 60.655 28.77 60.69 28.875V28.91L66.57 43.61V43.645C66.57 43.68 66.57 43.68 66.57 43.715C66.605 43.82 66.5 43.89 66.395 43.89Z" fill="white"/>
</svg>
