<svg width="195" height="42" viewBox="0 0 195 42" fill="none" xmlns="http://www.w3.org/2000/svg">
<g clip-path="url(#clip0_1_24)">
<path d="M52.8635 18.8034H49.6738L55.8199 1.38779H59.2819L65.389 18.8034H62.0437L60.9156 15.4917H53.9527L52.8635 18.8034ZM57.4536 5.28389L54.9641 12.6475H59.9431L57.4536 5.28389Z" fill="#010202"/>
<path d="M66.0503 12.4138C66.0503 10.4657 66.517 8.90727 67.4506 7.73844C67.9563 7.11507 68.6176 6.64753 69.3178 6.29688C70.0957 5.90727 70.9904 5.71247 71.8462 5.71247C73.7133 5.71247 75.1915 6.37481 76.2807 7.73844C76.9031 8.51766 77.2531 9.53065 77.292 10.5047H74.219C74.219 10.0761 74.0634 9.68649 73.83 9.29688C73.4022 8.63455 72.7798 8.32286 71.8462 8.36182C71.146 8.32286 70.4458 8.63455 69.979 9.14104C69.3956 9.76442 69.1233 10.8553 69.1233 12.4138C69.1233 13.9722 69.3956 15.0242 69.979 15.6475C70.4458 16.193 71.146 16.4657 71.8462 16.4657C72.7409 16.4657 73.4022 16.154 73.83 15.4917C74.0634 15.141 74.1801 14.7125 74.219 14.3229H77.292C77.2531 15.3358 76.9031 16.3099 76.2807 17.0891C75.1915 18.4527 73.7133 19.1151 71.8462 19.1151C70.9515 19.1151 70.0957 18.9203 69.3178 18.5307C68.6176 18.18 67.9563 17.7125 67.4506 17.0891C66.517 15.8813 66.0503 14.3229 66.0503 12.4138Z" fill="#010202"/>
<path d="M78.9647 12.4138C78.9647 10.4657 79.4315 8.90727 80.3651 7.73844C80.8707 7.11507 81.532 6.64753 82.2322 6.29688C83.0102 5.90727 83.9048 5.71247 84.7606 5.71247C86.6278 5.71247 88.1059 6.37481 89.1951 7.73844C89.8175 8.51766 90.1676 9.53065 90.2065 10.5047H87.1335C87.1335 10.0761 86.9779 9.68649 86.7445 9.29688C86.3166 8.63455 85.6942 8.32286 84.7606 8.36182C84.0604 8.32286 83.3603 8.63455 82.8935 9.14104C82.31 9.76442 82.0377 10.8553 82.0377 12.4138C82.0377 13.9722 82.31 15.0242 82.8935 15.6475C83.3603 16.193 84.0604 16.4657 84.7606 16.4657C85.6553 16.4657 86.3166 16.154 86.7445 15.4917C86.9779 15.141 87.0946 14.7125 87.1335 14.3229H90.2065C90.1676 15.3358 89.8175 16.3099 89.1951 17.0891C88.1059 18.4527 86.6278 19.1151 84.7606 19.1151C83.8659 19.1151 83.0102 18.9203 82.2322 18.5307C81.532 18.18 80.8707 17.7125 80.3651 17.0891C79.4315 15.8813 78.9647 14.3229 78.9647 12.4138Z" fill="#010202"/>
<path d="M97.8695 19.154C96.9749 19.154 96.1191 18.9592 95.3022 18.5696C94.5631 18.2579 93.9408 17.7514 93.4351 17.167C92.4626 15.9203 91.9569 14.3229 91.9569 12.4138C91.9569 10.5047 92.4626 8.90727 93.4351 7.66052C93.9408 7.03714 94.602 6.56961 95.3022 6.25792C96.1191 5.86831 96.9749 5.6735 97.8695 5.71247C98.7642 5.71247 99.62 5.90727 100.437 6.29688C101.176 6.60857 101.798 7.11506 102.304 7.69948C103.276 8.94623 103.782 10.5436 103.782 12.4527C103.782 14.3618 103.276 15.9203 102.304 17.206C101.798 17.8293 101.137 18.2969 100.437 18.6086C99.6589 18.9592 98.7642 19.154 97.8695 19.154ZM97.9084 8.36182C97.1694 8.36182 96.4692 8.63454 95.9635 9.18C95.3411 9.84234 95.0299 10.9332 95.0299 12.4138C95.0299 13.8943 95.3411 14.9852 95.9635 15.6475C96.4692 16.193 97.1694 16.5047 97.9084 16.4657H97.9473C98.6864 16.4657 99.3866 16.193 99.8923 15.6475C100.515 14.9852 100.826 13.8943 100.826 12.4138C100.826 10.9332 100.515 9.84234 99.8923 9.18C99.3477 8.63454 98.6475 8.32286 97.9084 8.36182Z" fill="#010202"/>
<path d="M106.155 14.5566V6.02415H109.228V13.8164C109.228 15.4138 109.967 16.2319 111.445 16.2319C112.029 16.2319 112.612 15.9982 113.001 15.6086C113.624 15.0242 113.935 14.0891 113.935 12.7255V6.02415H117.008V18.8034H114.674L114.324 17.0891C113.974 17.7514 113.468 18.2579 112.807 18.5696C112.107 18.9203 111.329 19.1151 110.512 19.1151C109.15 19.1151 108.061 18.6865 107.283 17.8683C106.544 17.0501 106.155 15.9203 106.155 14.5566Z" fill="#010202"/>
<path d="M120.081 18.8034V6.02416H122.648L122.881 7.69948C123.232 7.0761 123.776 6.53065 124.437 6.21896C125.138 5.86831 125.877 5.71247 126.655 5.71247C128.016 5.71247 129.066 6.14104 129.844 6.99818C130.622 7.85532 131.011 8.94623 131.011 10.3099V18.8034H127.938V10.9722C127.938 10.193 127.783 9.56961 127.472 9.18C127.16 8.79039 126.616 8.55662 125.838 8.55662C124.865 8.55662 124.126 9.10208 123.621 10.193C123.348 10.8164 123.193 11.9852 123.193 13.6216V18.8034H120.081Z" fill="#010202"/>
<path d="M132.528 8.55662V6.02416H134.862V2.79039L137.935 2.01117V6.02416H141.164V8.55662H137.935V14.8293C137.935 15.7644 138.402 16.2319 139.375 16.2319C140.036 16.2319 140.697 16.193 141.358 16.1151V18.7644C140.503 18.9203 139.608 18.9982 138.713 18.9982C137.43 18.9982 136.496 18.6475 135.835 17.9852C135.174 17.3229 134.862 16.3488 134.862 15.1021V8.55662H132.528Z" fill="#010202"/>
<path d="M147.466 19.154C145.987 19.154 144.82 18.7644 144.004 17.9852C143.187 17.2449 142.759 16.2319 142.759 15.141C142.72 14.0891 143.148 13.0371 143.965 12.3358C144.782 11.6345 145.832 11.2449 147.077 11.167L150.889 10.8943V10.1151C150.889 9.49169 150.733 8.9852 150.422 8.63455C150.111 8.2839 149.527 8.12805 148.71 8.12805C147.232 8.12805 146.454 8.71247 146.376 9.8813H143.342C143.42 8.51766 143.965 7.46571 144.937 6.76442C145.91 6.06312 147.193 5.71247 148.71 5.71247C151.239 5.71247 152.911 6.60857 153.573 8.36182C153.806 8.9852 153.962 9.84234 153.923 10.9722V15.6475C153.884 15.8813 153.962 16.0761 154.078 16.2709C154.234 16.3878 154.429 16.4657 154.623 16.4657L155.012 16.4268V18.7255C154.545 18.9592 154.04 19.0761 153.534 19.0761H153.495C152.911 19.1151 152.367 18.9203 151.939 18.5307C151.55 18.18 151.317 17.7514 151.278 17.2449C150.928 17.8294 150.383 18.3358 149.761 18.6475C149.099 18.9592 148.282 19.154 147.466 19.154ZM150.928 13.1151L147.621 13.3488C147.154 13.3878 146.727 13.5436 146.376 13.8553C146.026 14.1281 145.832 14.5566 145.871 15.0242C145.871 15.4527 146.065 15.8813 146.415 16.154C146.765 16.4268 147.232 16.5826 147.699 16.5826C148.671 16.5826 149.488 16.3099 150.072 15.8034C150.655 15.2969 150.967 14.5956 150.967 13.6605L150.928 13.1151Z" fill="#010202"/>
<path d="M157.229 18.8034V6.02416H159.797L160.03 7.69948C160.38 7.0761 160.925 6.53065 161.586 6.21896C162.286 5.86831 163.025 5.71247 163.803 5.71247C165.165 5.71247 166.215 6.14104 166.993 6.99818C167.771 7.85532 168.16 8.94623 168.16 10.3099V18.8034H165.087V10.9722C165.087 10.193 164.931 9.56961 164.62 9.18C164.309 8.79039 163.764 8.55662 162.986 8.55662C162.014 8.55662 161.275 9.10208 160.769 10.193C160.497 10.8164 160.341 11.9852 160.341 13.6216V18.8034H157.229Z" fill="#010202"/>
<path d="M170.338 12.4138C170.338 10.4657 170.805 8.90727 171.738 7.73844C172.244 7.11507 172.905 6.64753 173.606 6.29688C174.384 5.90727 175.278 5.71247 176.134 5.71247C178.001 5.71247 179.479 6.37481 180.569 7.73844C181.191 8.51766 181.541 9.53065 181.58 10.5047H178.507C178.507 10.0761 178.351 9.68649 178.118 9.29688C177.69 8.63455 177.068 8.32286 176.134 8.36182C175.434 8.32286 174.734 8.63455 174.267 9.14104C173.683 9.76442 173.411 10.8553 173.411 12.4138C173.411 13.9722 173.683 15.0242 174.267 15.6475C174.734 16.193 175.434 16.4657 176.134 16.4657C177.029 16.4657 177.69 16.154 178.118 15.4917C178.351 15.141 178.468 14.7125 178.507 14.3229H181.58C181.541 15.3358 181.191 16.3099 180.569 17.0891C179.479 18.4527 178.001 19.1151 176.134 19.1151C175.239 19.1151 174.384 18.9203 173.606 18.5307C172.905 18.18 172.244 17.7125 171.738 17.0891C170.805 15.8813 170.338 14.3229 170.338 12.4138Z" fill="#010202"/>
<path d="M181.963 6.02883H185.347L188.693 15.2626L191.882 6.02883H194.994L189.354 20.9899C188.537 23.1327 187.214 24.1847 185.425 24.1847C184.608 24.1847 183.83 24.0678 183.052 23.873V21.3405C183.636 21.4574 184.219 21.5353 184.764 21.5743C185.503 21.5743 185.97 21.2626 186.242 20.6003L186.981 18.8081L181.963 6.02883Z" fill="#010202"/>
<path d="M51.0742 35.9852C50.763 34.6216 50.6074 33.2579 50.6463 31.8553C50.6074 30.4917 50.763 29.0891 51.0742 27.7255C51.3854 26.5956 51.9689 25.5826 52.7858 24.7644C54.1083 23.4397 55.7421 22.8164 57.7259 22.8164C59.7098 22.8164 61.3824 23.4787 62.6661 24.8423C63.5996 25.8164 64.1442 27.0631 64.2998 28.6216H61.1101C61.0323 27.9592 60.76 27.2969 60.3321 26.7904C59.7487 26.0891 58.8929 25.6995 57.687 25.6995C56.6756 25.6605 55.7032 26.0891 55.003 26.8683C54.614 27.2969 54.3028 27.8423 54.1472 28.4268C53.9916 28.9722 53.8749 29.5177 53.836 30.0631C53.7971 30.4917 53.7971 31.1151 53.7971 31.8553C53.7971 32.5956 53.7971 33.219 53.836 33.6475C53.8749 34.193 53.9916 34.7774 54.1472 35.2839C54.3028 35.8683 54.5751 36.4138 55.003 36.8423C55.7032 37.5826 56.6756 38.0112 57.687 38.0112C58.854 38.0112 59.7098 37.6605 60.3321 36.9203C60.7989 36.3748 61.0712 35.7125 61.1101 35.0112H64.2998C64.1442 36.5696 63.5996 37.8553 62.6661 38.8294C61.3824 40.193 59.5931 40.9333 57.7259 40.8943C55.7421 40.8943 54.1083 40.232 52.7858 38.9462C51.9689 38.167 51.3854 37.1151 51.0742 35.9852Z" fill="#010202"/>
<path d="M66.4781 37.3099V22.8164H69.5512V36.7644C69.5123 37.0761 69.629 37.4268 69.7845 37.6995C69.9401 37.8943 70.2902 38.0112 70.757 38.0112C70.8348 38.0112 70.9515 38.0112 71.0682 38.0112C71.1849 38.0112 71.2238 38.0112 71.3016 38.0112V40.6216C70.8737 40.6995 70.4069 40.7774 69.9401 40.7774C68.851 40.7774 67.9952 40.5047 67.3728 39.9592C66.7893 39.3748 66.4781 38.4787 66.4781 37.3099Z" fill="#010202"/>
<path d="M78.4201 40.9333C77.5254 40.9333 76.6697 40.7384 75.8528 40.3488C75.1137 40.0371 74.4913 39.5307 73.9856 38.9462C73.0132 37.6995 72.5075 36.1021 72.5075 34.193C72.5075 32.2839 73.0132 30.7255 73.9856 29.4397C74.4913 28.8164 75.1526 28.3488 75.8528 28.0371C76.6697 27.6475 77.5254 27.4527 78.4201 27.4917C79.3148 27.4917 80.1705 27.6865 80.9874 28.0761C81.7265 28.3878 82.3489 28.8943 82.8546 29.4787C83.827 30.7255 84.3327 32.3229 84.3327 34.232C84.3327 36.141 83.827 37.6995 82.8546 38.9852C82.3489 39.6086 81.6876 40.0761 80.9874 40.3878C80.1705 40.7384 79.3148 40.9333 78.4201 40.9333ZM78.4201 30.141C77.681 30.141 76.9808 30.4138 76.4752 30.9592C75.8528 31.6216 75.5416 32.7125 75.5416 34.193C75.5416 35.6735 75.8528 36.7644 76.4752 37.4268C76.9808 37.9722 77.681 38.2839 78.4201 38.2449C79.1592 38.2449 79.8594 37.9722 80.365 37.4268C80.9874 36.7644 81.2986 35.6735 81.2986 34.193C81.2986 32.7125 80.9874 31.6216 80.365 30.9592C79.8594 30.4138 79.1592 30.1021 78.4201 30.141Z" fill="#010202"/>
<path d="M86.55 36.3358V27.8034H89.623V35.5956C89.623 37.2319 90.362 38.0112 91.8402 38.0112C92.4237 38.0112 93.0072 37.7774 93.3962 37.3878C94.0185 36.8034 94.3297 35.8683 94.3297 34.5047V27.8034H97.4027V40.6216H95.0688L94.7187 38.9073C94.3686 39.5696 93.8629 40.0761 93.2017 40.3878C92.5015 40.7384 91.7235 40.9333 90.9066 40.9333C89.5452 40.9333 88.456 40.5047 87.678 39.6865C86.9778 38.8294 86.55 37.7384 86.55 36.3358Z" fill="#010202"/>
<path d="M105.144 40.8943C104.016 40.8943 102.887 40.5436 102.032 39.8034C100.554 38.5566 99.7756 36.6865 99.7756 34.2319C99.7756 31.6995 100.554 29.7904 102.032 28.5047C102.926 27.8034 104.016 27.4527 105.144 27.4527C106.7 27.4527 107.828 27.8423 108.489 28.6605V22.8164H111.562V40.6216H108.917L108.722 39.2579C108.022 40.3488 106.816 40.8943 105.144 40.8943ZM105.766 30.0242C104.949 30.0242 104.171 30.3748 103.704 31.0371C103.16 31.7384 102.887 32.7904 102.887 34.154C102.887 35.5566 103.16 36.6086 103.704 37.3099C104.171 37.9722 104.949 38.3618 105.766 38.3229C106.466 38.3618 107.166 38.0891 107.672 37.6216C108.333 36.9592 108.683 35.7904 108.683 34.154C108.683 32.7904 108.45 31.7384 107.944 31.0371C107.439 30.3748 106.7 30.0242 105.766 30.0242Z" fill="#010202"/>
<path d="M20.8498 41.9852C9.29683 41.9462 -0.0388998 32.5177 -9.51739e-07 20.9462C0.0388979 9.37481 9.45242 -0.0148038 21.0443 0.0241572C29.4075 0.0631183 36.9539 5.08909 40.2214 12.8034C44.7337 23.4787 39.7157 35.8294 29.0186 40.3099C26.4512 41.4397 23.6505 41.9852 20.8498 41.9852ZM19.2938 17.6735C19.1771 17.6735 19.0604 17.6735 18.9437 17.6735C17.1544 17.7125 15.5595 18.219 14.2759 19.154C11.2807 21.2969 10.5805 25.4657 12.7199 28.4657C13.07 28.9333 13.459 29.4008 13.9258 29.7514C14.5482 30.3358 15.2873 30.7644 16.0652 31.1151C16.8821 31.4657 17.7768 31.6605 18.6715 31.6995C18.7882 31.6995 18.9048 31.6995 19.0215 31.6995C20.5775 31.6995 22.0946 31.232 23.3782 30.3358L23.7283 30.1021V26.4787C22.2502 27.6475 20.7331 28.2709 19.3327 28.2709C19.2549 28.2709 19.1771 28.2709 19.0604 28.2709C17.8157 28.232 16.6487 27.6475 15.8707 26.6735C15.0928 25.6995 14.8983 24.4138 15.3262 23.2449C15.8707 21.8813 17.3489 20.9073 19.0993 20.7125C19.2938 20.6735 19.5272 20.6735 19.7606 20.6735C21.1221 20.6735 22.4835 21.0631 23.6894 21.4917V18.4138C22.289 17.9462 20.8109 17.7125 19.2938 17.6735ZM20.7331 12.141C20.8498 12.141 20.9665 12.141 21.0832 12.141C22.289 12.18 23.4171 12.7255 24.234 13.6216C25.0509 14.5177 25.5177 15.6865 25.5177 16.8943V28.5436C25.5177 29.9852 26.6846 31.1151 28.1239 31.1151H31.5081V27.8034H29.1741V17.167C29.213 12.6865 25.6344 9.06312 21.1999 8.94624C21.0832 8.94624 20.9665 8.94624 20.8498 8.94624C18.3214 8.94624 16.0652 9.76442 14.5871 11.206C13.2645 12.4917 12.5254 14.2449 12.5254 16.232H16.143C16.143 15.141 16.4931 14.1281 17.0766 13.5436C18.0491 12.5696 19.1771 12.141 20.7331 12.141Z" fill="#010202"/>
</g>
<defs>
<clipPath id="clip0_1_24">
<rect width="195" height="42" fill="white"/>
</clipPath>
</defs>
</svg>
